<svg width="13" height="24" viewBox="0 0 13 24" fill="none" xmlns="http://www.w3.org/2000/svg">
    <path d="M10.204 3.98507C8.43235 3.98507 8.08979 4.82694 8.08979 6.06216V8.78594H12.3145L12.3125 13.0521H8.09012V24H3.68362V13.0521H0V8.78594H3.68362V5.63973C3.68362 1.98853 5.91444 0 9.17128 0L12.4635 0.00501309V3.98407L10.204 3.98507Z"
          fill="#3B5999"/>
    <path style="mix-blend-mode:soft-light"
          d="M10.204 3.98507C8.43235 3.98507 8.08979 4.82694 8.08979 6.06216V8.78594H12.3145L12.3125 13.0521H8.09012V24H3.68362V13.0521H0V8.78594H3.68362V5.63973C3.68362 1.98853 5.91444 0 9.17128 0L12.4635 0.00501309V3.98407L10.204 3.98507Z"
          fill="url(#facebook_paint_linear)" fill-opacity="0.5"/>
    <defs>
        <linearGradient id="facebook_paint_linear" x1="6.23177" y1="0" x2="6.23177" y2="24" gradientUnits="userSpaceOnUse">
            <stop stop-opacity="0"/>
            <stop offset="1"/>
        </linearGradient>
    </defs>
</svg>
