<svg width="22" height="22" viewBox="0 0 22 22" fill="none" xmlns="http://www.w3.org/2000/svg">
    <path d="M14.7992 10.4534C14.674 8.0208 12.8688 6.55817 10.6883 6.55817H10.6062C8.09002 6.55817 6.69446 8.53687 6.69446 10.7844C6.69446 13.3015 8.38289 14.891 10.5963 14.891C13.0645 14.891 14.6876 13.0832 14.805 10.9449L14.7992 10.4534ZM10.6186 4.38201C12.2998 4.38201 13.8804 5.12503 15.0412 6.28843V6.29305C15.0412 5.7342 15.417 5.31325 15.9392 5.31325L16.071 5.31238C16.8877 5.31238 17.0551 6.08518 17.0551 6.32977L17.0592 15.0159C17.0017 15.584 17.6461 15.8775 18.0034 15.5132C19.3981 14.0798 21.0666 8.14483 17.1364 4.70582C13.4733 1.49984 8.55867 2.02834 5.94479 3.8298C3.16612 5.74634 1.38807 9.98735 3.11523 13.9708C4.99794 18.3167 10.3856 19.6119 13.5875 18.3199C15.2089 17.6653 15.958 19.8574 14.2739 20.5733C11.7294 21.6577 4.64754 21.5484 1.33921 15.8176C-0.895931 11.9478 -0.776816 5.13891 5.15117 1.61143C9.68621 -1.08687 15.6651 -0.339507 19.2703 3.42591C23.0389 7.36191 22.8192 14.7323 19.1431 17.5994C17.4778 18.9007 15.0042 17.6335 15.0201 15.7364L15.0027 15.1159C13.8431 16.2669 12.2998 16.9382 10.6186 16.9382C7.2964 16.9382 4.37346 14.015 4.37346 10.6939C4.37346 7.33878 7.2964 4.38201 10.6186 4.38201Z"
          fill="#FFA930"/>
    <path style="mix-blend-mode:soft-light"
          d="M14.7992 10.4534C14.674 8.0208 12.8688 6.55817 10.6883 6.55817H10.6062C8.09002 6.55817 6.69446 8.53687 6.69446 10.7844C6.69446 13.3015 8.38289 14.891 10.5963 14.891C13.0645 14.891 14.6876 13.0832 14.805 10.9449L14.7992 10.4534ZM10.6186 4.38201C12.2998 4.38201 13.8804 5.12503 15.0412 6.28843V6.29305C15.0412 5.7342 15.417 5.31325 15.9392 5.31325L16.071 5.31238C16.8877 5.31238 17.0551 6.08518 17.0551 6.32977L17.0592 15.0159C17.0017 15.584 17.6461 15.8775 18.0034 15.5132C19.3981 14.0798 21.0666 8.14483 17.1364 4.70582C13.4733 1.49984 8.55867 2.02834 5.94479 3.8298C3.16612 5.74634 1.38807 9.98735 3.11523 13.9708C4.99794 18.3167 10.3856 19.6119 13.5875 18.3199C15.2089 17.6653 15.958 19.8574 14.2739 20.5733C11.7294 21.6577 4.64754 21.5484 1.33921 15.8176C-0.895931 11.9478 -0.776816 5.13891 5.15117 1.61143C9.68621 -1.08687 15.6651 -0.339507 19.2703 3.42591C23.0389 7.36191 22.8192 14.7323 19.1431 17.5994C17.4778 18.9007 15.0042 17.6335 15.0201 15.7364L15.0027 15.1159C13.8431 16.2669 12.2998 16.9382 10.6186 16.9382C7.2964 16.9382 4.37346 14.015 4.37346 10.6939C4.37346 7.33878 7.2964 4.38201 10.6186 4.38201Z"
          fill="url(#mail_paint_linear)" fill-opacity="0.5"/>
    <defs>
        <linearGradient id="mail_paint_linear" x1="11" y1="0" x2="11" y2="21.1077" gradientUnits="userSpaceOnUse">
            <stop stop-opacity="0"/>
            <stop offset="1"/>
        </linearGradient>
    </defs>
</svg>
