<svg width="15" height="24" viewBox="0 0 15 24" fill="none" xmlns="http://www.w3.org/2000/svg">
    <path d="M7.22201 9.0478C8.86863 9.0418 10.1801 7.71907 10.1741 6.06892C10.1681 4.41807 8.85381 3.10451 7.20648 3.1031C5.54539 3.10133 4.21878 4.43923 4.23148 6.10491C4.24383 7.74906 5.57009 9.0538 7.22201 9.0478ZM7.23047 2.32292e-05C10.5893 0.00919661 13.2853 2.75662 13.268 6.15254C13.251 9.47013 10.511 12.159 7.15779 12.1477C3.83879 12.1364 1.11677 9.38474 1.13653 6.06045C1.15523 2.69982 3.87866 -0.00915015 7.23047 2.32292e-05ZM14.0336 14.5342C13.2909 15.2966 12.3969 15.8484 11.404 16.2334C10.4655 16.5971 9.43703 16.7803 8.41878 16.9023C8.57296 17.0696 8.64529 17.1518 8.74126 17.2477C10.1229 18.6368 11.5113 20.0188 12.8883 21.4118C13.3576 21.8867 13.4553 22.4752 13.1971 23.0266C12.9151 23.6299 12.2825 24.0265 11.6619 23.9838C11.2689 23.9567 10.9623 23.7616 10.6902 23.4874C9.64731 22.4381 8.58461 21.4075 7.56354 20.3385C7.2654 20.0273 7.12286 20.0866 6.86001 20.3568C5.81107 21.4372 4.74484 22.5002 3.67261 23.5576C3.19101 24.0325 2.61803 24.1186 2.05916 23.8469C1.46536 23.5597 1.08784 22.9532 1.11677 22.3432C1.13723 21.9318 1.33975 21.6164 1.62271 21.3348C2.99061 19.9698 4.35427 18.6005 5.71828 17.2322C5.80895 17.1415 5.89292 17.0452 6.02453 16.9041C4.16409 16.7097 2.48642 16.2517 1.05008 15.1287C0.871556 14.989 0.687735 14.8542 0.525437 14.6975C-0.103645 14.0939 -0.1668 13.402 0.330327 12.69C0.756183 12.0803 1.4703 11.9173 2.21299 12.2677C2.35694 12.335 2.49383 12.4204 2.62508 12.5108C5.30159 14.35 8.97871 14.4005 11.6658 12.593C11.9318 12.3897 12.2166 12.2225 12.5464 12.1382C13.1872 11.9731 13.7856 12.2091 14.1292 12.7701C14.5226 13.4112 14.518 14.0364 14.0336 14.5342Z"
          fill="#ED812B"/>
    <path style="mix-blend-mode:soft-light"
          d="M7.22201 9.0478C8.86863 9.0418 10.1801 7.71907 10.1741 6.06892C10.1681 4.41807 8.85381 3.10451 7.20648 3.1031C5.54539 3.10133 4.21878 4.43923 4.23148 6.10491C4.24383 7.74906 5.57009 9.0538 7.22201 9.0478ZM7.23047 2.32292e-05C10.5893 0.00919661 13.2853 2.75662 13.268 6.15254C13.251 9.47013 10.511 12.159 7.15779 12.1477C3.83879 12.1364 1.11677 9.38474 1.13653 6.06045C1.15523 2.69982 3.87866 -0.00915015 7.23047 2.32292e-05ZM14.0336 14.5342C13.2909 15.2966 12.3969 15.8484 11.404 16.2334C10.4655 16.5971 9.43703 16.7803 8.41878 16.9023C8.57296 17.0696 8.64529 17.1518 8.74126 17.2477C10.1229 18.6368 11.5113 20.0188 12.8883 21.4118C13.3576 21.8867 13.4553 22.4752 13.1971 23.0266C12.9151 23.6299 12.2825 24.0265 11.6619 23.9838C11.2689 23.9567 10.9623 23.7616 10.6902 23.4874C9.64731 22.4381 8.58461 21.4075 7.56354 20.3385C7.2654 20.0273 7.12286 20.0866 6.86001 20.3568C5.81107 21.4372 4.74484 22.5002 3.67261 23.5576C3.19101 24.0325 2.61803 24.1186 2.05916 23.8469C1.46536 23.5597 1.08784 22.9532 1.11677 22.3432C1.13723 21.9318 1.33975 21.6164 1.62271 21.3348C2.99061 19.9698 4.35427 18.6005 5.71828 17.2322C5.80895 17.1415 5.89292 17.0452 6.02453 16.9041C4.16409 16.7097 2.48642 16.2517 1.05008 15.1287C0.871556 14.989 0.687735 14.8542 0.525437 14.6975C-0.103645 14.0939 -0.1668 13.402 0.330327 12.69C0.756183 12.0803 1.4703 11.9173 2.21299 12.2677C2.35694 12.335 2.49383 12.4204 2.62508 12.5108C5.30159 14.35 8.97871 14.4005 11.6658 12.593C11.9318 12.3897 12.2166 12.2225 12.5464 12.1382C13.1872 11.9731 13.7856 12.2091 14.1292 12.7701C14.5226 13.4112 14.518 14.0364 14.0336 14.5342Z"
          fill="url(#od_paint_linear)" fill-opacity="0.5"/>
    <defs>
        <linearGradient id="od_paint_linear" x1="7.20583" y1="0" x2="7.20583" y2="24" gradientUnits="userSpaceOnUse">
            <stop stop-opacity="0"/>
            <stop offset="1"/>
        </linearGradient>
    </defs>
</svg>
