<svg width="22" height="18" viewBox="0 0 22 18" fill="none" xmlns="http://www.w3.org/2000/svg">
    <path d="M19.773 4.57191C19.7799 4.74612 19.7836 4.92064 19.7836 5.09607C19.7836 11.3999 14.9867 17.9202 6.95946 17.9202C4.50563 17.9202 2.11642 17.22 0.0502744 15.8948C0.00709758 15.8673 -0.0107166 15.8139 0.00649371 15.7659C0.023704 15.7182 0.0723156 15.6886 0.122135 15.6943C0.468757 15.7357 0.823229 15.7562 1.17498 15.7562C3.08412 15.7562 4.89151 15.1659 6.42021 14.046C4.58776 13.8914 3.01287 12.6514 2.44643 10.8824C2.43466 10.8455 2.44311 10.8054 2.46848 10.7764C2.49414 10.7474 2.53339 10.7347 2.57083 10.7417C3.07869 10.838 3.595 10.8443 4.09259 10.7634C2.20277 10.1761 0.874558 8.40588 0.874558 6.39046L0.875162 6.33189C0.876068 6.29354 0.896901 6.25852 0.930114 6.2395C0.963025 6.22017 1.00409 6.21987 1.0373 6.23859C1.53006 6.51214 2.07536 6.68787 2.63484 6.7552C1.54878 5.88955 0.911092 4.57734 0.911092 3.17364C0.911092 2.36385 1.12547 1.56795 1.53127 0.87199C1.54938 0.84089 1.58139 0.820963 1.61702 0.818245C1.65295 0.814622 1.68767 0.830323 1.71032 0.858101C3.93316 3.58458 7.20282 5.26334 10.6992 5.47922C10.641 5.18574 10.6114 4.8832 10.6114 4.57795C10.6114 2.05346 12.6651 0 15.1893 0C16.4303 0 17.6296 0.509969 18.4892 1.40128C19.4581 1.20382 20.3811 0.847533 21.2338 0.342093C21.2727 0.318844 21.3216 0.322467 21.3576 0.350547C21.3926 0.378929 21.4071 0.426031 21.3932 0.46951C21.1042 1.3732 20.5408 2.16156 19.7839 2.7307C20.4967 2.60661 21.1885 2.39707 21.8464 2.10509C21.8905 2.08486 21.9427 2.09755 21.9744 2.13468C22.0058 2.17212 22.0085 2.22557 21.9814 2.26603C21.382 3.16308 20.6393 3.93875 19.773 4.57191Z"
          fill="#55ACEE"/>
    <path style="mix-blend-mode:soft-light"
          d="M19.773 4.57191C19.7799 4.74612 19.7836 4.92064 19.7836 5.09607C19.7836 11.3999 14.9867 17.9202 6.95946 17.9202C4.50563 17.9202 2.11642 17.22 0.0502744 15.8948C0.00709758 15.8673 -0.0107166 15.8139 0.00649371 15.7659C0.023704 15.7182 0.0723156 15.6886 0.122135 15.6943C0.468757 15.7357 0.823229 15.7562 1.17498 15.7562C3.08412 15.7562 4.89151 15.1659 6.42021 14.046C4.58776 13.8914 3.01287 12.6514 2.44643 10.8824C2.43466 10.8455 2.44311 10.8054 2.46848 10.7764C2.49414 10.7474 2.53339 10.7347 2.57083 10.7417C3.07869 10.838 3.595 10.8443 4.09259 10.7634C2.20277 10.1761 0.874558 8.40588 0.874558 6.39046L0.875162 6.33189C0.876068 6.29354 0.896901 6.25852 0.930114 6.2395C0.963025 6.22017 1.00409 6.21987 1.0373 6.23859C1.53006 6.51214 2.07536 6.68787 2.63484 6.7552C1.54878 5.88955 0.911092 4.57734 0.911092 3.17364C0.911092 2.36385 1.12547 1.56795 1.53127 0.87199C1.54938 0.84089 1.58139 0.820963 1.61702 0.818245C1.65295 0.814622 1.68767 0.830323 1.71032 0.858101C3.93316 3.58458 7.20282 5.26334 10.6992 5.47922C10.641 5.18574 10.6114 4.8832 10.6114 4.57795C10.6114 2.05346 12.6651 0 15.1893 0C16.4303 0 17.6296 0.509969 18.4892 1.40128C19.4581 1.20382 20.3811 0.847533 21.2338 0.342093C21.2727 0.318844 21.3216 0.322467 21.3576 0.350547C21.3926 0.378929 21.4071 0.426031 21.3932 0.46951C21.1042 1.3732 20.5408 2.16156 19.7839 2.7307C20.4967 2.60661 21.1885 2.39707 21.8464 2.10509C21.8905 2.08486 21.9427 2.09755 21.9744 2.13468C22.0058 2.17212 22.0085 2.22557 21.9814 2.26603C21.382 3.16308 20.6393 3.93875 19.773 4.57191Z"
          fill="url(#twitter_paint_linear)" fill-opacity="0.5"/>
    <defs>
        <linearGradient id="twitter_paint_linear" x1="11" y1="0" x2="11" y2="17.9202" gradientUnits="userSpaceOnUse">
            <stop stop-opacity="0"/>
            <stop offset="1"/>
        </linearGradient>
    </defs>
</svg>
