<svg width="24" height="14" viewBox="0 0 24 14" fill="none" xmlns="http://www.w3.org/2000/svg">
    <path d="M20.6548 8.63497C21.4501 9.41172 22.2914 10.1427 23.0053 10.9998C23.3216 11.3789 23.6197 11.7709 23.8467 12.2118C24.1706 12.8406 23.8781 13.53 23.3153 13.5674L19.8198 13.5667C18.917 13.6414 18.1986 13.2773 17.5929 12.6601C17.1094 12.1682 16.6608 11.6428 16.1951 11.1342C16.0048 10.9254 15.8045 10.7289 15.5657 10.5742C15.0891 10.2642 14.6751 10.3592 14.4021 10.857C14.1239 11.3635 14.0604 11.9249 14.0338 12.4887C13.9958 13.3129 13.7472 13.5283 12.9202 13.567C11.1531 13.6498 9.47633 13.3817 7.91795 12.4908C6.5432 11.705 5.47914 10.5959 4.55193 9.34015C2.74639 6.89227 1.36361 4.2056 0.121166 1.44178C-0.158463 0.819336 0.0461094 0.486295 0.732788 0.473379C1.87364 0.451385 3.0145 0.454178 4.15536 0.472331C4.61966 0.479662 4.92687 0.745327 5.10526 1.18345C5.72177 2.70028 6.47757 4.14346 7.42467 5.48191C7.67707 5.83834 7.93471 6.19372 8.30161 6.44542C8.70656 6.7233 9.01517 6.63149 9.20613 6.17941C9.32831 5.8921 9.38103 5.58489 9.40756 5.27699C9.49832 4.22236 9.50914 3.16808 9.35205 2.11764C9.2543 1.46028 8.88461 1.03578 8.22935 0.911498C7.89561 0.848311 7.94448 0.72473 8.10681 0.534122C8.38854 0.204572 8.65246 0.000698194 9.17994 0.000698194L13.1293 0C13.7517 0.122185 13.8914 0.401464 13.9759 1.02845L13.9794 5.41732C13.972 5.65995 14.1012 6.37909 14.5369 6.53793C14.886 6.65313 15.1164 6.37316 15.3251 6.15218C16.2722 5.14712 16.9471 3.96088 17.5513 2.7331C17.8181 2.19165 18.0481 1.63134 18.2715 1.06999C18.4377 0.65491 18.696 0.450687 19.1645 0.457669L22.9676 0.462207C23.0797 0.462207 23.1935 0.463255 23.3045 0.482455C23.9454 0.592072 24.121 0.867861 23.9228 1.4931C23.6107 2.47546 23.0043 3.29375 22.4115 4.11414C21.7761 4.99247 21.0985 5.84008 20.4695 6.72226C19.8914 7.52868 19.9371 7.93468 20.6548 8.63497Z"
          fill="#4C75A3"/>
    <path style="mix-blend-mode:soft-light"
          d="M20.6548 8.63497C21.4501 9.41172 22.2914 10.1427 23.0053 10.9998C23.3216 11.3789 23.6197 11.7709 23.8467 12.2118C24.1706 12.8406 23.8781 13.53 23.3153 13.5674L19.8198 13.5667C18.917 13.6414 18.1986 13.2773 17.5929 12.6601C17.1094 12.1682 16.6608 11.6428 16.1951 11.1342C16.0048 10.9254 15.8045 10.7289 15.5657 10.5742C15.0891 10.2642 14.6751 10.3592 14.4021 10.857C14.1239 11.3635 14.0604 11.9249 14.0338 12.4887C13.9958 13.3129 13.7472 13.5283 12.9202 13.567C11.1531 13.6498 9.47633 13.3817 7.91795 12.4908C6.5432 11.705 5.47914 10.5959 4.55193 9.34015C2.74639 6.89227 1.36361 4.2056 0.121166 1.44178C-0.158463 0.819336 0.0461094 0.486295 0.732788 0.473379C1.87364 0.451385 3.0145 0.454178 4.15536 0.472331C4.61966 0.479662 4.92687 0.745327 5.10526 1.18345C5.72177 2.70028 6.47757 4.14346 7.42467 5.48191C7.67707 5.83834 7.93471 6.19372 8.30161 6.44542C8.70656 6.7233 9.01517 6.63149 9.20613 6.17941C9.32831 5.8921 9.38103 5.58489 9.40756 5.27699C9.49832 4.22236 9.50914 3.16808 9.35205 2.11764C9.2543 1.46028 8.88461 1.03578 8.22935 0.911498C7.89561 0.848311 7.94448 0.72473 8.10681 0.534122C8.38854 0.204572 8.65246 0.000698194 9.17994 0.000698194L13.1293 0C13.7517 0.122185 13.8914 0.401464 13.9759 1.02845L13.9794 5.41732C13.972 5.65995 14.1012 6.37909 14.5369 6.53793C14.886 6.65313 15.1164 6.37316 15.3251 6.15218C16.2722 5.14712 16.9471 3.96088 17.5513 2.7331C17.8181 2.19165 18.0481 1.63134 18.2715 1.06999C18.4377 0.65491 18.696 0.450687 19.1645 0.457669L22.9676 0.462207C23.0797 0.462207 23.1935 0.463255 23.3045 0.482455C23.9454 0.592072 24.121 0.867861 23.9228 1.4931C23.6107 2.47546 23.0043 3.29375 22.4115 4.11414C21.7761 4.99247 21.0985 5.84008 20.4695 6.72226C19.8914 7.52868 19.9371 7.93468 20.6548 8.63497Z"
          fill="url(#vk_paint_linear)" fill-opacity="0.5"/>
    <defs>
        <linearGradient id="vk_paint_linear" x1="12" y1="0" x2="12" y2="13.5813" gradientUnits="userSpaceOnUse">
            <stop stop-opacity="0"/>
            <stop offset="1"/>
        </linearGradient>
    </defs>
</svg>
