<svg width="12" height="24" viewBox="0 0 12 24" fill="none" xmlns="http://www.w3.org/2000/svg">
    <path d="M11.5991 24H9.05326V15.0411H7.26141L3.20648 24H0L5.0925 14.8053C5.0925 14.8053 0.802057 12.8251 0.802057 7.92122C0.802057 3.01798 4.22103 0 7.09067 0H11.5991V24ZM6.72274 2.03436C6.34491 2.09608 3.60663 2.71124 3.60663 7.47383C3.60663 9.648 4.15215 10.9576 4.77874 11.7451C5.38225 12.503 6.31802 12.9194 7.28678 12.9194H8.98194V2.02819H6.8032C6.77615 2.02819 6.74987 2.02979 6.72274 2.03436Z"
          fill="#DA3332"/>
    <path style="mix-blend-mode:soft-light"
          d="M11.5991 24H9.05326V15.0411H7.26141L3.20648 24H0L5.0925 14.8053C5.0925 14.8053 0.802057 12.8251 0.802057 7.92122C0.802057 3.01798 4.22103 0 7.09067 0H11.5991V24ZM6.72274 2.03436C6.34491 2.09608 3.60663 2.71124 3.60663 7.47383C3.60663 9.648 4.15215 10.9576 4.77874 11.7451C5.38225 12.503 6.31802 12.9194 7.28678 12.9194H8.98194V2.02819H6.8032C6.77615 2.02819 6.74987 2.02979 6.72274 2.03436Z"
          fill="url(#yandex_paint_linear)" fill-opacity="0.5"/>
    <defs>
        <linearGradient id="yandex_paint_linear" x1="5.79954" y1="0" x2="5.79954" y2="24"
                        gradientUnits="userSpaceOnUse">
            <stop stop-opacity="0"/>
            <stop offset="1"/>
        </linearGradient>
    </defs>
</svg>
