<?xml version="1.0" encoding="UTF-8"?>
<svg width="148px" height="64px" viewBox="0 0 148 64" version="1.1" xmlns="http://www.w3.org/2000/svg" xmlns:xlink="http://www.w3.org/1999/xlink">
    <!-- Generator: Sketch 52 (66869) - http://www.bohemiancoding.com/sketch -->
    <title>logo_new</title>
    <desc>Created with Sketch.</desc>
    <defs>
        <linearGradient x1="50%" y1="0%" x2="50%" y2="100%" id="linearGradient-1">
            <stop stop-color="#000000" offset="0%"></stop>
            <stop stop-color="#001518" offset="100%"></stop>
        </linearGradient>
        <linearGradient x1="50.1539646%" y1="-0.0769230769%" x2="50.1539646%" y2="99.9615385%" id="linearGradient-2">
            <stop stop-color="#ADACAC" offset="0%"></stop>
            <stop stop-color="#6A6A6A" offset="100%"></stop>
        </linearGradient>
        <linearGradient x1="50%" y1="100%" x2="50%" y2="3.061617e-15%" id="linearGradient-3">
            <stop stop-color="#000000" stop-opacity="0" offset="0%"></stop>
            <stop stop-color="#000000" offset="100%"></stop>
        </linearGradient>
        <linearGradient x1="50.1539646%" y1="-0.0769230769%" x2="50.1539646%" y2="99.9615385%" id="linearGradient-4">
            <stop stop-color="#BEBEBE" offset="0%"></stop>
            <stop stop-color="#828385" offset="100%"></stop>
        </linearGradient>
        <linearGradient x1="50.1539646%" y1="-0.0769230769%" x2="50.1539646%" y2="99.9615385%" id="linearGradient-5">
            <stop stop-color="#7A7A7A" offset="0%"></stop>
            <stop stop-color="#525252" offset="100%"></stop>
        </linearGradient>
        <linearGradient x1="50%" y1="100%" x2="50%" y2="3.04597182%" id="linearGradient-6">
            <stop stop-color="#004846" offset="0%"></stop>
            <stop stop-color="#000203" offset="100%"></stop>
        </linearGradient>
        <linearGradient x1="50%" y1="100%" x2="50%" y2="3.061617e-15%" id="linearGradient-7">
            <stop stop-color="#FFEEC7" offset="0%"></stop>
            <stop stop-color="#A06A00" offset="100%"></stop>
        </linearGradient>
        <linearGradient x1="50%" y1="0%" x2="50%" y2="100%" id="linearGradient-8">
            <stop stop-color="#FFE8B9" offset="0%"></stop>
            <stop stop-color="#A47200" offset="100%"></stop>
        </linearGradient>
        <linearGradient x1="50%" y1="-15.6069864%" x2="50%" y2="104.447893%" id="linearGradient-9">
            <stop stop-color="#FFE7B8" offset="0%"></stop>
            <stop stop-color="#CEAB5C" offset="100%"></stop>
        </linearGradient>
        <radialGradient cx="50%" cy="50%" fx="50%" fy="50%" r="100%" id="radialGradient-10">
            <stop stop-color="#FFFFFF" offset="0%"></stop>
            <stop stop-color="#000000" offset="100%"></stop>
        </radialGradient>
        <linearGradient x1="50%" y1="100%" x2="50%" y2="3.061617e-15%" id="linearGradient-11">
            <stop stop-color="#5F5F5F" offset="0%"></stop>
            <stop stop-color="#000000" offset="100%"></stop>
        </linearGradient>
    </defs>
    <g id="logo_new" stroke="none" stroke-width="1" fill="none" fill-rule="evenodd">
        <path d="M77.7649143,58.2501823 C74.7245407,59.3816413 71.4344831,60 68,60 C58.4850196,60 50.0785417,55.2539364 45.0187571,48 L20,48 C11.163444,48 4,40.836556 4,32 C4,23.163444 11.163444,16 20,16 L45.0187571,16 C50.0785417,8.7460636 58.4850196,4 68,4 C77.5149804,4 85.9214583,8.7460636 90.9812429,16 L128,16 C136.836556,16 144,23.163444 144,32 C144,40.836556 136.836556,48 128,48 L111.49593,48 C109.719759,54.9009089 103.455358,60 96,60 C92.6799355,60 89.5960558,58.9887725 87.0395594,57.2575161 C85.9705387,58.9079531 84.1128,60 82,60 C80.3469852,60 78.8500985,59.331536 77.7649143,58.2501823 Z" id="Combined-Shape" fill="url(#linearGradient-1)"></path>
        <path d="M108.977858,45.8034123 C108.992619,45.5438231 109,45.2834123 109,45.0221801 C109,44.7609479 108.992619,44.5005371 108.977858,44.2409479 L106.933384,43.9254976 C106.891974,43.5113958 106.827083,43.0999887 106.739023,42.6932701 L108.586677,41.7592417 C108.452508,41.256883 108.288192,40.7630942 108.094625,40.2805687 L106.052612,40.6132701 C105.883849,40.229698 105.693277,39.8561311 105.481832,39.4944076 L106.957986,38.0354502 C106.677526,37.5960816 106.371087,37.1739063 106.04031,36.7711848 L104.204958,37.6953555 C103.926716,37.3830788 103.63101,37.0868682 103.319266,36.8081517 L104.266465,34.9647393 C103.864458,34.6333611 103.442999,34.3263976 103.004353,34.0454976 L101.54788,35.5241706 C101.186768,35.3123744 100.813838,35.1214771 100.430924,34.9524171 L100.763058,32.9069194 C100.281357,32.7130167 99.7884086,32.5484203 99.2869039,32.4140284 L98.3544663,34.2648341 C97.9484444,34.1766035 97.5377369,34.111601 97.1243376,34.0701422 L96.8094247,32.0221801 C96.5519177,32.0073934 96.2919505,32 96.0295231,32 C95.7670956,32 95.5071284,32.0073934 95.2496215,32.0221801 L94.9347086,34.0701422 C94.5213086,34.1115957 94.1106008,34.1765983 93.7045799,34.2648341 L92.7721423,32.4140284 C92.270641,32.5484318 91.7776936,32.7130279 91.2959879,32.9069194 L91.6281226,34.9524171 C91.2452038,35.1214673 90.8722732,35.3123649 90.5111658,35.5241706 L89.0546934,34.0454976 C88.6160467,34.3263976 88.1945881,34.6333611 87.7925814,34.9647393 L88.7397805,36.8081517 C88.4280466,37.0868797 88.1323412,37.3830898 87.8540878,37.6953555 L85.9621499,36.7588626 C85.631336,37.1615552 85.3248954,37.5837328 85.0444739,38.023128 L86.5206283,39.4820853 C86.3091597,39.8437959 86.1185865,40.2173641 85.9498486,40.6009479 L83.907835,40.2682464 C83.71424,40.7507616 83.5499235,41.2445521 83.4157835,41.7469194 L85.2609765,42.6735545 C85.1729171,43.0802731 85.1080255,43.4916801 85.0666162,43.905782 L83.0221423,44.2212322 C83.0073808,44.4808215 83,44.7412322 83,45.0024645 C83,45.2636967 83.0073808,45.5241074 83.0221423,45.7836967 L85.0666162,46.0991469 C85.1080361,46.5132474 85.1729276,46.9246539 85.2609765,47.3313744 L83.4133232,48.2654028 C83.5474805,48.767765 83.7117966,49.2615545 83.9053747,49.7440758 L85.9473883,49.4113744 C86.1161847,49.7949303 86.3067562,50.1684953 86.5181681,50.530237 L85.0420136,51.9891943 C85.3224352,52.4285895 85.6288758,52.8507671 85.9596896,53.2534597 L87.7999621,52.3046445 C88.0782423,52.6168849 88.3739463,52.9130934 88.6856548,53.1918483 L87.7384557,55.0352607 C88.1404985,55.3665923 88.5619541,55.6735537 89.0005678,55.9545024 L90.4570401,54.4758294 C90.818132,54.6876635 91.1910642,54.878562 91.573997,55.0475829 L91.2418622,57.0930806 C91.7235782,57.286944 92.2165239,57.4515396 92.7180167,57.5859716 L93.6504542,55.7351659 C94.056481,55.8233703 94.467187,55.8883725 94.8805829,55.9298578 L95.1954958,57.9778199 C95.4530028,57.9926066 95.71297,58 95.9753974,58 C96.2378249,58 96.4977921,57.9926066 96.755299,57.9778199 L97.070212,55.9298578 C97.4836071,55.8883673 97.8943129,55.8233651 98.3003407,55.7351659 L99.2327782,57.5859716 C99.7342916,57.4516085 100.227241,57.2870115 100.708933,57.0930806 L100.376798,55.0475829 C100.759726,54.8785522 101.132658,54.687654 101.493755,54.4758294 L102.950227,55.9545024 C103.388851,55.6735683 103.810307,55.3666063 104.212339,55.0352607 L103.26514,53.1918483 C103.576877,52.9131241 103.872583,52.6169139 104.150833,52.3046445 L105.991105,53.2534597 C106.338025,52.8681145 106.661712,52.4624033 106.960447,52.0384834 L105.484292,50.5795261 C105.695704,50.2177844 105.886276,49.8442194 106.055072,49.4606635 L108.097086,49.7933649 C108.290664,49.3108436 108.45498,48.8170541 108.589137,48.3146919 L106.739023,47.356019 C106.827072,46.9492984 106.891964,46.537892 106.933384,46.1237915 L108.977858,45.8034123 Z M105.004542,44.3690995 L97.5622634,44.3690995 L102.817373,39.1050237 C104.096543,40.5759952 104.864111,42.4233782 105.004542,44.3690995 Z M101.909538,38.1833175 L96.6519682,43.4473934 L96.6519682,36.0022749 C98.593209,36.1401719 100.437316,36.9055367 101.907078,38.1833175 L101.909538,38.1833175 Z M95.3480318,36.0022749 L95.3480318,43.4473934 L90.092922,38.1833175 C91.5626839,36.9055367 93.406791,36.1401719 95.3480318,36.0022749 Z M89.1727858,39.1050237 L94.4278955,44.3690995 L87.0003785,44.3690995 C87.1373481,42.4248385 87.9005326,40.5776173 89.175246,39.1050237 L89.1727858,39.1050237 Z M86.995458,45.6727962 L94.4278955,45.6727962 L89.1727858,50.936872 C87.8984733,49.4632929 87.1361332,47.6151612 87.0003785,45.6703318 L86.995458,45.6727962 Z M90.092922,51.8585782 L95.3480318,46.5920379 L95.3480318,54.0371564 C93.4076499,53.8987365 91.5644839,53.133404 90.0953823,51.8561137 L90.092922,51.8585782 Z M96.6495079,54.0396209 L96.6495079,46.5920379 L101.904618,51.8561137 C100.435516,53.133404 98.5923501,53.8987365 96.6519682,54.0371564 L96.6495079,54.0396209 Z M102.824754,50.936872 L97.5622634,45.6703318 L104.994701,45.6703318 C104.860332,47.6145779 104.099745,49.4626452 102.827214,50.936872 L102.824754,50.936872 Z" id="Mask" fill="#000000" fill-rule="nonzero" opacity="0.800000012"></path>
        <path d="M108.977858,44.8034123 C108.992619,44.5438231 109,44.2834123 109,44.0221801 C109,43.7609479 108.992619,43.5005371 108.977858,43.2409479 L106.933384,42.9254976 C106.891974,42.5113958 106.827083,42.0999887 106.739023,41.6932701 L108.586677,40.7592417 C108.452508,40.256883 108.288192,39.7630942 108.094625,39.2805687 L106.052612,39.6132701 C105.883849,39.229698 105.693277,38.8561311 105.481832,38.4944076 L106.957986,37.0354502 C106.677526,36.5960816 106.371087,36.1739063 106.04031,35.7711848 L104.204958,36.6953555 C103.926716,36.3830788 103.63101,36.0868682 103.319266,35.8081517 L104.266465,33.9647393 C103.864458,33.6333611 103.442999,33.3263976 103.004353,33.0454976 L101.54788,34.5241706 C101.186768,34.3123744 100.813838,34.1214771 100.430924,33.9524171 L100.763058,31.9069194 C100.281357,31.7130167 99.7884086,31.5484203 99.2869039,31.4140284 L98.3544663,33.2648341 C97.9484444,33.1766035 97.5377369,33.111601 97.1243376,33.0701422 L96.8094247,31.0221801 C96.5519177,31.0073934 96.2919505,31 96.0295231,31 C95.7670956,31 95.5071284,31.0073934 95.2496215,31.0221801 L94.9347086,33.0701422 C94.5213086,33.1115957 94.1106008,33.1765983 93.7045799,33.2648341 L92.7721423,31.4140284 C92.270641,31.5484318 91.7776936,31.7130279 91.2959879,31.9069194 L91.6281226,33.9524171 C91.2452038,34.1214673 90.8722732,34.3123649 90.5111658,34.5241706 L89.0546934,33.0454976 C88.6160467,33.3263976 88.1945881,33.6333611 87.7925814,33.9647393 L88.7397805,35.8081517 C88.4280466,36.0868797 88.1323412,36.3830898 87.8540878,36.6953555 L85.9621499,35.7588626 C85.631336,36.1615552 85.3248954,36.5837328 85.0444739,37.023128 L86.5206283,38.4820853 C86.3091597,38.8437959 86.1185865,39.2173641 85.9498486,39.6009479 L83.907835,39.2682464 C83.71424,39.7507616 83.5499235,40.2445521 83.4157835,40.7469194 L85.2609765,41.6735545 C85.1729171,42.0802731 85.1080255,42.4916801 85.0666162,42.905782 L83.0221423,43.2212322 C83.0073808,43.4808215 83,43.7412322 83,44.0024645 C83,44.2636967 83.0073808,44.5241074 83.0221423,44.7836967 L85.0666162,45.0991469 C85.1080361,45.5132474 85.1729276,45.9246539 85.2609765,46.3313744 L83.4133232,47.2654028 C83.5474805,47.767765 83.7117966,48.2615545 83.9053747,48.7440758 L85.9473883,48.4113744 C86.1161847,48.7949303 86.3067562,49.1684953 86.5181681,49.530237 L85.0420136,50.9891943 C85.3224352,51.4285895 85.6288758,51.8507671 85.9596896,52.2534597 L87.7999621,51.3046445 C88.0782423,51.6168849 88.3739463,51.9130934 88.6856548,52.1918483 L87.7384557,54.0352607 C88.1404985,54.3665923 88.5619541,54.6735537 89.0005678,54.9545024 L90.4570401,53.4758294 C90.818132,53.6876635 91.1910642,53.878562 91.573997,54.0475829 L91.2418622,56.0930806 C91.7235782,56.286944 92.2165239,56.4515396 92.7180167,56.5859716 L93.6504542,54.7351659 C94.056481,54.8233703 94.467187,54.8883725 94.8805829,54.9298578 L95.1954958,56.9778199 C95.4530028,56.9926066 95.71297,57 95.9753974,57 C96.2378249,57 96.4977921,56.9926066 96.755299,56.9778199 L97.070212,54.9298578 C97.4836071,54.8883673 97.8943129,54.8233651 98.3003407,54.7351659 L99.2327782,56.5859716 C99.7342916,56.4516085 100.227241,56.2870115 100.708933,56.0930806 L100.376798,54.0475829 C100.759726,53.8785522 101.132658,53.687654 101.493755,53.4758294 L102.950227,54.9545024 C103.388851,54.6735683 103.810307,54.3666063 104.212339,54.0352607 L103.26514,52.1918483 C103.576877,51.9131241 103.872583,51.6169139 104.150833,51.3046445 L105.991105,52.2534597 C106.338025,51.8681145 106.661712,51.4624033 106.960447,51.0384834 L105.484292,49.5795261 C105.695704,49.2177844 105.886276,48.8442194 106.055072,48.4606635 L108.097086,48.7933649 C108.290664,48.3108436 108.45498,47.8170541 108.589137,47.3146919 L106.739023,46.356019 C106.827072,45.9492984 106.891964,45.537892 106.933384,45.1237915 L108.977858,44.8034123 Z M105.004542,43.3690995 L97.5622634,43.3690995 L102.817373,38.1050237 C104.096543,39.5759952 104.864111,41.4233782 105.004542,43.3690995 Z M101.909538,37.1833175 L96.6519682,42.4473934 L96.6519682,35.0022749 C98.593209,35.1401719 100.437316,35.9055367 101.907078,37.1833175 L101.909538,37.1833175 Z M95.3480318,35.0022749 L95.3480318,42.4473934 L90.092922,37.1833175 C91.5626839,35.9055367 93.406791,35.1401719 95.3480318,35.0022749 Z M89.1727858,38.1050237 L94.4278955,43.3690995 L87.0003785,43.3690995 C87.1373481,41.4248385 87.9005326,39.5776173 89.175246,38.1050237 L89.1727858,38.1050237 Z M86.995458,44.6727962 L94.4278955,44.6727962 L89.1727858,49.936872 C87.8984733,48.4632929 87.1361332,46.6151612 87.0003785,44.6703318 L86.995458,44.6727962 Z M90.092922,50.8585782 L95.3480318,45.5920379 L95.3480318,53.0371564 C93.4076499,52.8987365 91.5644839,52.133404 90.0953823,50.8561137 L90.092922,50.8585782 Z M96.6495079,53.0396209 L96.6495079,45.5920379 L101.904618,50.8561137 C100.435516,52.133404 98.5923501,52.8987365 96.6519682,53.0371564 L96.6495079,53.0396209 Z M102.824754,49.936872 L97.5622634,44.6703318 L104.994701,44.6703318 C104.860332,46.6145779 104.099745,48.4626452 102.827214,49.936872 L102.824754,49.936872 Z" id="Mask" fill="url(#linearGradient-2)" fill-rule="nonzero"></path>
        <path d="M85.1945532,46 L87.1935286,46 C87.5159047,47.4495136 88.1930211,48.8038997 89.1727858,49.936872 L93.1029523,46 L94.9409552,46 L90.092922,50.8585782 L90.0953823,50.8561137 C90.6072995,51.3011931 91.1646361,51.6841098 91.7556788,52 L88.4765774,52 C88.241046,51.7782526 88.015288,51.5462479 87.7999621,51.3046445 L86.4512869,52 L85.7566959,52 C85.502683,51.6746237 85.2641824,51.3373126 85.0420136,50.9891943 L86.5181681,49.530237 C86.3067562,49.1684953 86.1161847,48.7949303 85.9473883,48.4113744 L83.9053747,48.7440758 C83.7117966,48.2615545 83.5474805,47.767765 83.4133232,47.2654028 L85.2609765,46.3313744 C85.2371355,46.2212466 85.2149923,46.1107753 85.1945532,46 Z M103.47425,52 L100.244321,52 C100.835364,51.6841098 101.392701,51.3011931 101.904618,50.8561137 L97.0567752,46 L98.8909092,46 L102.824754,49.936872 L102.827214,49.936872 C103.805537,48.8034848 104.481273,47.4491373 104.802496,46 L106.809965,46 C106.788282,46.1190367 106.764632,46.237726 106.739023,46.356019 L108.589137,47.3146919 C108.45498,47.8170541 108.290664,48.3108436 108.097086,48.7933649 L106.055072,48.4606635 C105.886276,48.8442194 105.695704,49.2177844 105.484292,49.5795261 L106.960447,51.0384834 C106.726473,51.3705041 106.477193,51.6913551 106.213432,52 L105.499508,52 L104.150833,51.3046445 C103.935536,51.5462646 103.709788,51.7782701 103.474249,52 L103.47425,52 Z M95.3480318,46 L96.6495079,46 L96.6495079,52 L95.3480318,52 L95.3480318,46 Z" id="Combined-Shape" fill="url(#linearGradient-3)" fill-rule="nonzero"></path>
        <path d="M69.7911996,14.5880039 L69,22.5 L67,22.5 L66.2088004,14.5880039 C57.1086017,15.4870299 50,23.1633635 50,32.5 C50,42.4411255 58.0588745,50.5 68,50.5 C77.9411255,50.5 86,42.4411255 86,32.5 C86,23.1633635 78.8913983,15.4870299 69.7911996,14.5880039 Z M66.0019672,54.4104912 C64.5007933,54.2753483 63.0430925,53.9894119 61.6441271,53.5679443 C61.6364608,53.5882758 61.6284411,53.6085557 61.6200653,53.6287768 L61.2373818,54.5526563 C60.8146814,55.5731455 59.6447451,56.057749 58.6242559,55.6350485 C57.6037668,55.2123481 57.1191633,54.0424118 57.5418637,53.0219226 L57.9245471,52.0980431 C57.9286064,52.0882433 57.9327345,52.0784929 57.9369307,52.0687922 C56.6053169,51.3826388 55.3527811,50.5645582 54.1966001,49.631827 L53.504311,50.3241161 C52.7232624,51.1051647 51.4569324,51.1051647 50.6758839,50.3241161 C49.8948353,49.5430676 49.8948353,48.2767376 50.6758839,47.495689 L51.3227945,46.8487784 C50.3412591,45.7090028 49.4745734,44.4675039 48.7407023,43.1422467 L47.9780774,43.4581363 C46.9575882,43.8808367 45.7876519,43.3962332 45.3649515,42.3757441 C44.942251,41.3552549 45.4268545,40.1853186 46.4473437,39.7626182 L47.1302623,39.479744 C46.651145,38.0465256 46.3155326,36.5475916 46.140483,35 L45.5,35 C44.3954305,35 43.5,34.1045695 43.5,33 C43.5,31.8954305 44.3954305,31 45.5,31 L46.0503326,31 C46.1569209,29.4169806 46.4309614,27.8798563 46.8548886,26.4061925 L46.4473437,26.2373818 C45.4268545,25.8146814 44.942251,24.6447451 45.3649515,23.6242559 C45.7876519,22.6037668 46.9575882,22.1191633 47.9780774,22.5418637 L48.3085001,22.6787293 C49.019097,21.2567549 49.8791864,19.9225135 50.868173,18.6966001 L50.6758839,18.504311 C49.8948353,17.7232624 49.8948353,16.4569324 50.6758839,15.6758839 C51.4569324,14.8948353 52.7232624,14.8948353 53.504311,15.6758839 L53.6512216,15.8227945 C54.8592268,14.7825021 56.1814987,13.8712213 57.5966488,13.1103402 L57.5418637,12.9780774 C57.1191633,11.9575882 57.6037668,10.7876519 58.6242559,10.3649515 C59.6447451,9.94225101 60.8146814,10.4268545 61.2373818,11.4473437 L61.2781725,11.5458211 C62.7876615,11.0619882 64.3681396,10.7367408 66,10.589686 L66,10.5 C66,9.3954305 66.8954305,8.5 68,8.5 C69.1045695,8.5 70,9.3954305 70,10.5 L70,10.589686 C71.6318604,10.7367408 73.2123385,11.0619882 74.7218275,11.5458211 L74.7626182,11.4473437 C75.1853186,10.4268545 76.3552549,9.94225101 77.3757441,10.3649515 C78.3962332,10.7876519 78.8808367,11.9575882 78.4581363,12.9780774 L78.4033512,13.1103402 C79.8185013,13.8712213 81.1407732,14.7825021 82.3487784,15.8227945 L82.495689,15.6758839 C83.2767376,14.8948353 84.5430676,14.8948353 85.3241161,15.6758839 C86.1051647,16.4569324 86.1051647,17.7232624 85.3241161,18.504311 L85.131827,18.6966001 C86.1208136,19.9225135 86.980903,21.2567549 87.6914999,22.6787293 L88.0219226,22.5418637 C89.0424118,22.1191633 90.2123481,22.6037668 90.6350485,23.6242559 C91.057749,24.6447451 90.5731455,25.8146814 89.5526563,26.2373818 L89.1451114,26.4061925 C89.5690386,27.8798563 89.8430791,29.4169806 89.9496674,31 L90.5,31 C91.6045695,31 92.5,31.8954305 92.5,33 C92.5,34.1045695 91.6045695,35 90.5,35 L89.859517,35 C89.6844674,36.5475916 89.348855,38.0465256 88.8697377,39.479744 L89.5526563,39.7626182 C90.5731455,40.1853186 91.057749,41.3552549 90.6350485,42.3757441 C90.2123481,43.3962332 89.0424118,43.8808367 88.0219226,43.4581363 L87.2592977,43.1422467 C86.5254266,44.4675039 85.6587409,45.7090028 84.6772055,46.8487784 L85.3241161,47.495689 C86.1051647,48.2767376 86.1051647,49.5430676 85.3241161,50.3241161 C84.5430676,51.1051647 83.2767376,51.1051647 82.495689,50.3241161 L81.8033999,49.631827 C80.6472189,50.5645582 79.3946831,51.3826388 78.0630693,52.0687922 C78.0672655,52.0784929 78.0713936,52.0882433 78.0754529,52.0980431 L78.4581363,53.0219226 C78.8808367,54.0424118 78.3962332,55.2123481 77.3757441,55.6350485 C76.3552549,56.057749 75.1853186,55.5731455 74.7626182,54.5526563 L74.3799347,53.6287768 C74.3715589,53.6085557 74.3635392,53.5882758 74.3558729,53.5679443 C72.9569075,53.9894119 71.4992067,54.2753483 69.9980328,54.4104912 C69.9993397,54.4401641 70,54.4700049 70,54.5 L70,55.5 C70,56.6045695 69.1045695,57.5 68,57.5 C66.8954305,57.5 66,56.6045695 66,55.5 L66,54.5 C66,54.4700049 66.0006603,54.4401641 66.0019672,54.4104912 Z" id="Mask" fill="#000000" fill-rule="nonzero" opacity="0.800000012"></path>
        <path d="M69.7911996,13.5880039 L69,21.5 L67,21.5 L66.2088004,13.5880039 C57.1086017,14.4870299 50,22.1633635 50,31.5 C50,41.4411255 58.0588745,49.5 68,49.5 C77.9411255,49.5 86,41.4411255 86,31.5 C86,22.1633635 78.8913983,14.4870299 69.7911996,13.5880039 Z M66.0019672,53.4104912 C64.5007933,53.2753483 63.0430925,52.9894119 61.6441271,52.5679443 C61.6364608,52.5882758 61.6284411,52.6085557 61.6200653,52.6287768 L61.2373818,53.5526563 C60.8146814,54.5731455 59.6447451,55.057749 58.6242559,54.6350485 C57.6037668,54.2123481 57.1191633,53.0424118 57.5418637,52.0219226 L57.9245471,51.0980431 C57.9286064,51.0882433 57.9327345,51.0784929 57.9369307,51.0687922 C56.6053169,50.3826388 55.3527811,49.5645582 54.1966001,48.631827 L53.504311,49.3241161 C52.7232624,50.1051647 51.4569324,50.1051647 50.6758839,49.3241161 C49.8948353,48.5430676 49.8948353,47.2767376 50.6758839,46.495689 L51.3227945,45.8487784 C50.3412591,44.7090028 49.4745734,43.4675039 48.7407023,42.1422467 L47.9780774,42.4581363 C46.9575882,42.8808367 45.7876519,42.3962332 45.3649515,41.3757441 C44.942251,40.3552549 45.4268545,39.1853186 46.4473437,38.7626182 L47.1302623,38.479744 C46.651145,37.0465256 46.3155326,35.5475916 46.140483,34 L45.5,34 C44.3954305,34 43.5,33.1045695 43.5,32 C43.5,30.8954305 44.3954305,30 45.5,30 L46.0503326,30 C46.1569209,28.4169806 46.4309614,26.8798563 46.8548886,25.4061925 L46.4473437,25.2373818 C45.4268545,24.8146814 44.942251,23.6447451 45.3649515,22.6242559 C45.7876519,21.6037668 46.9575882,21.1191633 47.9780774,21.5418637 L48.3085001,21.6787293 C49.019097,20.2567549 49.8791864,18.9225135 50.868173,17.6966001 L50.6758839,17.504311 C49.8948353,16.7232624 49.8948353,15.4569324 50.6758839,14.6758839 C51.4569324,13.8948353 52.7232624,13.8948353 53.504311,14.6758839 L53.6512216,14.8227945 C54.8592268,13.7825021 56.1814987,12.8712213 57.5966488,12.1103402 L57.5418637,11.9780774 C57.1191633,10.9575882 57.6037668,9.7876519 58.6242559,9.36495145 C59.6447451,8.94225101 60.8146814,9.4268545 61.2373818,10.4473437 L61.2781725,10.5458211 C62.7876615,10.0619882 64.3681396,9.73674085 66,9.58968603 L66,9.5 C66,8.3954305 66.8954305,7.5 68,7.5 C69.1045695,7.5 70,8.3954305 70,9.5 L70,9.58968603 C71.6318604,9.73674085 73.2123385,10.0619882 74.7218275,10.5458211 L74.7626182,10.4473437 C75.1853186,9.4268545 76.3552549,8.94225101 77.3757441,9.36495145 C78.3962332,9.7876519 78.8808367,10.9575882 78.4581363,11.9780774 L78.4033512,12.1103402 C79.8185013,12.8712213 81.1407732,13.7825021 82.3487784,14.8227945 L82.495689,14.6758839 C83.2767376,13.8948353 84.5430676,13.8948353 85.3241161,14.6758839 C86.1051647,15.4569324 86.1051647,16.7232624 85.3241161,17.504311 L85.131827,17.6966001 C86.1208136,18.9225135 86.980903,20.2567549 87.6914999,21.6787293 L88.0219226,21.5418637 C89.0424118,21.1191633 90.2123481,21.6037668 90.6350485,22.6242559 C91.057749,23.6447451 90.5731455,24.8146814 89.5526563,25.2373818 L89.1451114,25.4061925 C89.5690386,26.8798563 89.8430791,28.4169806 89.9496674,30 L90.5,30 C91.6045695,30 92.5,30.8954305 92.5,32 C92.5,33.1045695 91.6045695,34 90.5,34 L89.859517,34 C89.6844674,35.5475916 89.348855,37.0465256 88.8697377,38.479744 L89.5526563,38.7626182 C90.5731455,39.1853186 91.057749,40.3552549 90.6350485,41.3757441 C90.2123481,42.3962332 89.0424118,42.8808367 88.0219226,42.4581363 L87.2592977,42.1422467 C86.5254266,43.4675039 85.6587409,44.7090028 84.6772055,45.8487784 L85.3241161,46.495689 C86.1051647,47.2767376 86.1051647,48.5430676 85.3241161,49.3241161 C84.5430676,50.1051647 83.2767376,50.1051647 82.495689,49.3241161 L81.8033999,48.631827 C80.6472189,49.5645582 79.3946831,50.3826388 78.0630693,51.0687922 C78.0672655,51.0784929 78.0713936,51.0882433 78.0754529,51.0980431 L78.4581363,52.0219226 C78.8808367,53.0424118 78.3962332,54.2123481 77.3757441,54.6350485 C76.3552549,55.057749 75.1853186,54.5731455 74.7626182,53.5526563 L74.3799347,52.6287768 C74.3715589,52.6085557 74.3635392,52.5882758 74.3558729,52.5679443 C72.9569075,52.9894119 71.4992067,53.2753483 69.9980328,53.4104912 C69.9993397,53.4401641 70,53.4700049 70,53.5 L70,54.5 C70,55.6045695 69.1045695,56.5 68,56.5 C66.8954305,56.5 66,55.6045695 66,54.5 L66,53.5 C66,53.4700049 66.0006603,53.4401641 66.0019672,53.4104912 Z" id="Mask" fill="url(#linearGradient-4)" fill-rule="nonzero"></path>
        <path d="M92.2540985,18 L43.7459015,18 C48.587239,9.63077732 57.6360502,4 68,4 C78.3639498,4 87.412761,9.63077732 92.2540985,18 Z" id="Path" fill="url(#linearGradient-3)"></path>
        <path d="M49.8936952,44 L55.0481416,44 C56.6724999,45.6827043 58.6217537,47.0497156 60.7948691,48 L50.0921152,48 C50.0678498,47.4585571 50.2624393,46.9091335 50.6758839,46.495689 L51.3227945,45.8487784 C50.8148393,45.2589322 50.3376429,44.6418428 49.8936952,44 Z M80.9518584,44 L86.1063048,44 C85.6623571,44.6418428 85.1851607,45.2589322 84.6772055,45.8487784 L85.3241161,46.495689 C85.7375607,46.9091335 85.9321502,47.4585571 85.9078848,48 L75.2051309,48 C77.3782463,47.0497156 79.3275001,45.6827043 80.9518584,44 Z" id="Combined-Shape" fill="url(#linearGradient-3)" fill-rule="nonzero" opacity="0.5"></path>
        <rect id="Rectangle" fill="#000000" opacity="0.200000003" x="5" y="17" width="138" height="30" rx="15"></rect>
        <path d="M83.9237875,57.3123077 L84.2725173,56.9730769 L83.4734411,55.9161538 C83.5687461,55.7642756 83.6396592,55.5984199 83.6836028,55.4246154 L85,55.2769231 L85,54.79 L83.6882217,54.6076923 C83.6483739,54.432952 83.5813554,54.2655347 83.4896074,54.1115385 L84.3163972,53.0753846 L83.9769053,52.7269231 L82.9191686,53.5253846 C82.7672088,53.4300852 82.6012145,53.359222 82.4272517,53.3153846 L82.2794457,52 L81.7921478,52 L81.6096998,53.3107692 C81.4348702,53.3507314 81.267346,53.4176895 81.113164,53.5092308 L80.0762125,52.6830769 L79.7274827,53.0223077 L80.5265589,54.0792308 C80.4313212,54.2311442 80.3604128,54.396989 80.3163972,54.5707692 L79,54.7184615 L79,55.2053846 L80.3117783,55.3876923 C80.3518431,55.5623649 80.4188485,55.7297494 80.5103926,55.8838462 L79.6905312,56.9246154 L80.0300231,57.2730769 L81.0877598,56.4746154 C81.2398427,56.5696795 81.4057989,56.6405264 81.5796767,56.6846154 L81.7274827,58 L82.2147806,58 L82.3972286,56.6892308 C82.5699269,56.6471475 82.7350786,56.5786467 82.886836,56.4861538 L83.9237875,57.3123077 Z" id="Mask" fill="#000000" opacity="0.800000012"></path>
        <path d="M83.9237875,56.3123077 L84.2725173,55.9730769 L83.4734411,54.9161538 C83.5687461,54.7642756 83.6396592,54.5984199 83.6836028,54.4246154 L85,54.2769231 L85,53.79 L83.6882217,53.6076923 C83.6483739,53.432952 83.5813554,53.2655347 83.4896074,53.1115385 L84.3163972,52.0753846 L83.9769053,51.7269231 L82.9191686,52.5253846 C82.7672088,52.4300852 82.6012145,52.359222 82.4272517,52.3153846 L82.2794457,51 L81.7921478,51 L81.6096998,52.3107692 C81.4348702,52.3507314 81.267346,52.4176895 81.113164,52.5092308 L80.0762125,51.6830769 L79.7274827,52.0223077 L80.5265589,53.0792308 C80.4313212,53.2311442 80.3604128,53.396989 80.3163972,53.5707692 L79,53.7184615 L79,54.2053846 L80.3117783,54.3876923 C80.3518431,54.5623649 80.4188485,54.7297494 80.5103926,54.8838462 L79.6905312,55.9246154 L80.0300231,56.2730769 L81.0877598,55.4746154 C81.2398427,55.5696795 81.4057989,55.6405264 81.5796767,55.6846154 L81.7274827,57 L82.2147806,57 L82.3972286,55.6892308 C82.5699269,55.6471475 82.7350786,55.5786467 82.886836,55.4861538 L83.9237875,56.3123077 Z" id="Mask" fill="url(#linearGradient-5)"></path>
        <path d="M79,54 L79,53.7184615 L80.3163972,53.5707692 C80.3604128,53.396989 80.4313212,53.2311442 80.5265589,53.0792308 L79.7274827,52.0223077 L80.0762125,51.6830769 L81.113164,52.5092308 C81.267346,52.4176895 81.4348702,52.3507314 81.6096998,52.3107692 L81.7921478,51 L82.2794457,51 L82.4272517,52.3153846 C82.6012145,52.359222 82.7672088,52.4300852 82.9191686,52.5253846 L83.9769053,51.7269231 L84.3163972,52.0753846 L83.4896074,53.1115385 C83.5813554,53.2655347 83.6483739,53.432952 83.6882217,53.6076923 L85,53.79 L85,54 L79,54 Z" id="Combined-Shape" fill="url(#linearGradient-3)"></path>
        <rect id="Rectangle" fill="url(#linearGradient-6)" x="7" y="19" width="134" height="26" rx="13"></rect>
        <path d="M20,20 C13.372583,20 8,25.372583 8,32 C8,38.627417 13.372583,44 20,44 L128,44 C134.627417,44 140,38.627417 140,32 C140,25.372583 134.627417,20 128,20 L20,20 Z M20,18 L128,18 C135.731986,18 142,24.2680135 142,32 C142,39.7319865 135.731986,46 128,46 L20,46 C12.2680135,46 6,39.7319865 6,32 C6,24.2680135 12.2680135,18 20,18 Z" id="Rectangle" fill="url(#linearGradient-7)" fill-rule="nonzero"></path>
        <path d="M20,19 C12.8202983,19 7,24.8202983 7,32 C7,39.1797017 12.8202983,45 20,45 L128,45 C135.179702,45 141,39.1797017 141,32 C141,24.8202983 135.179702,19 128,19 L20,19 Z M20,18 L128,18 C135.731986,18 142,24.2680135 142,32 C142,39.7319865 135.731986,46 128,46 L20,46 C12.2680135,46 6,39.7319865 6,32 C6,24.2680135 12.2680135,18 20,18 Z" id="Rectangle" fill="url(#linearGradient-8)" fill-rule="nonzero"></path>
        <g id="joycasino" transform="translate(31.333333, 22.000000)" fill-rule="nonzero">
            <path d="M77.8685497,20.9333373 C76.2141677,20.9333373 74.9814122,20.058005 74.1702831,18.3073403 C73.3591541,16.5566756 72.9535896,14.1421051 72.9535896,11.0636286 C72.9535896,7.97841873 73.3631696,5.53085485 74.1823296,3.72093691 C75.0014896,1.91101896 76.190744,1.00605999 77.7500928,1.00605999 C79.2144082,1.00605999 80.3755542,1.83964571 81.2335306,3.50681715 C82.0915071,5.17398859 82.5211645,7.64242578 82.522503,10.9121287 C82.522503,14.2478183 82.096861,16.7512688 81.2455771,18.4224802 C80.3942931,20.0936916 79.2686174,20.930644 77.8685497,20.9333373 Z M78.7178259,18.8628397 C79.0149722,18.3807336 79.2264547,17.0583084 79.3522734,14.8955642 C79.4794306,12.73282 79.5430092,10.7491822 79.5430092,8.94465097 C79.5643227,7.59758707 79.4689287,6.25121649 79.2579094,4.92081554 C79.0705198,3.86368341 78.8650606,3.18563751 78.6415316,2.88667785 C78.4507554,2.59986762 78.1292349,2.42901412 77.7862322,2.43217837 C77.4867678,2.43512061 77.2015889,2.56142349 76.9971883,2.78163797 C76.7642899,3.01461104 76.5822543,3.43275057 76.4510816,4.03605655 C76.319909,4.63936253 76.2047982,5.81971452 76.1057495,7.57711252 C76.0120547,9.3277772 75.9652073,11.1457751 75.9652073,13.0311063 C75.9652073,15.385077 76.1117727,17.0684084 76.4049035,18.0811006 C76.6980343,19.0937928 77.1424152,19.5947522 77.7380463,19.5839789 C78.0940864,19.5859989 78.4206796,19.3449458 78.7178259,18.8628397 Z M69.357718,11.7787077 L69.357718,3.58357706 C69.3803744,3.20589339 69.2100733,2.84265178 68.9059753,2.62003816 C68.7200824,2.51595034 68.6025534,2.32092089 68.5967825,2.10695874 L68.5967825,1.55751937 C68.5884767,1.4747227 68.6193667,1.39281816 68.6801745,1.33640653 C68.7409822,1.2799949 68.8246233,1.25564839 68.9059753,1.27067969 L71.5883228,1.27067969 C71.6601896,1.26043168 71.7326628,1.28478151 71.7839881,1.33642005 C71.8353134,1.3880586 71.8595156,1.46097409 71.8493297,1.53327939 L71.8493297,2.10695874 C71.8386625,2.31679804 71.7260386,2.50791632 71.5481679,2.61801816 C71.2410264,2.83824684 71.0662878,3.20051175 71.0843788,3.57953707 L71.0843788,20.371778 C71.0843788,20.641111 70.9692681,20.7757775 70.7390466,20.7757775 L70.2230561,20.7757775 C69.9828482,20.7757794 69.7749371,20.6077634 69.7231276,20.371778 L64.7981287,6.76911344 L64.7981287,18.3679403 C64.7736317,18.7497243 64.9457442,19.1174092 65.2538868,19.3415791 C65.4332936,19.4445868 65.5477213,19.6329055 65.5570564,19.8405186 L65.5570564,20.4020779 C65.5652041,20.4844555 65.5345646,20.5659223 65.4742546,20.6222378 C65.4139447,20.6785534 65.3309151,20.7032272 65.2498714,20.6889176 L62.5996477,20.6889176 C62.5279113,20.6993448 62.4555055,20.67497 62.4044518,20.6232066 C62.3533981,20.5714432 62.329731,20.4984094 62.3406486,20.4263179 L62.3406486,19.8384986 C62.3548747,19.6308166 62.4707532,19.4438254 62.6498414,19.3395591 C62.9526363,19.1113218 63.1221288,18.7460153 63.101584,18.3659203 L63.101584,3.57953707 C63.1239203,3.20247829 62.9536144,2.83998794 62.6498414,2.61801816 C62.4645521,2.51429564 62.3471187,2.32019199 62.3406486,2.10695874 L62.3406486,1.55751937 C62.3325009,1.47514183 62.3631404,1.39367499 62.4234503,1.33735947 C62.4837603,1.28104394 62.5667899,1.2563701 62.6478336,1.27067969 L65.1555073,1.27067969 C65.2819597,1.25841589 65.4092893,1.28221714 65.5229247,1.33935961 C65.613809,1.43107946 65.6789263,1.54538159 65.7116527,1.67063924 L69.357718,11.7787077 Z M61.2624895,19.3355192 C61.4442152,19.4370184 61.5610865,19.6256118 61.5716822,19.8344586 L61.5716822,20.3960179 C61.579988,20.4788146 61.549098,20.5607192 61.4882903,20.6171308 C61.4274826,20.6735424 61.3438415,20.6978889 61.2624895,20.6828576 L57.5581996,20.6828576 C57.4863329,20.6931056 57.4138597,20.6687558 57.3625344,20.6171173 C57.311209,20.5654787 57.2870069,20.4925632 57.2971927,20.4202579 L57.2971927,19.8324386 C57.3114189,19.6247566 57.4272973,19.4377654 57.6063855,19.3334992 C57.9091804,19.1052618 58.078673,18.7399553 58.0581282,18.3598603 L58.0581282,3.57953707 C58.0804644,3.20247829 57.9101585,2.83998794 57.6063855,2.61801816 C57.4195473,2.51532853 57.3004703,2.32103166 57.2931773,2.10695874 L57.2931773,1.55751937 C57.2848714,1.4747227 57.3157614,1.39281816 57.3765692,1.33640653 C57.4373769,1.2799949 57.521018,1.25564839 57.60237,1.27067969 L61.3086676,1.27067969 C61.3805343,1.26043168 61.4530075,1.28478151 61.5043329,1.33642005 C61.5556582,1.3880586 61.5798603,1.46097409 61.5696745,1.53327939 L61.5696745,2.10695874 C61.5579567,2.31858809 61.4419446,2.51034247 61.2604817,2.61801816 C60.9596301,2.84241208 60.7901189,3.20321077 60.808739,3.57953707 L60.808739,18.3618803 C60.7864874,18.7426894 60.9567651,19.1096881 61.2624895,19.3355192 Z M49.2260572,20.6828576 C49.1383441,20.6896281 49.0525391,20.6546926 48.9941924,20.5884536 C48.9358457,20.5222146 48.9116873,20.4323128 48.9289109,20.345518 L48.9289109,15.6389234 C48.9289109,15.322457 49.0359906,15.1642239 49.2501501,15.1642239 L49.7601174,15.1642239 C49.870291,15.1505441 49.9771393,15.2079315 50.0271475,15.3076437 C50.1167362,15.6323412 50.1785326,15.964159 50.2118601,16.2994626 C50.5357763,18.4797135 51.275965,19.5698389 52.4324262,19.5698389 C53.0197747,19.576923 53.5641228,19.2608701 53.851902,18.7456798 C54.2103058,18.1431258 54.3893853,17.4497779 54.3678925,16.7479021 C54.3734414,15.9644845 54.1836067,15.1921778 53.8157626,14.5016646 C53.447676,13.8108254 52.7376035,12.8789332 51.685545,11.7059878 C51.0655445,11.0441592 50.4849632,10.3460429 49.9468377,9.6152902 C49.591566,9.09852778 49.3116576,8.53325389 49.1156312,7.93667211 C48.8992949,7.27183245 48.7928094,6.57579399 48.8004152,5.87627446 C48.8004152,4.49459603 49.1310239,3.35868398 49.7922413,2.46853833 C50.4534587,1.57839268 51.2565568,1.13331985 52.2015355,1.13331985 C52.6943517,1.1476884 53.176455,1.28142234 53.6069571,1.52317941 C53.744926,1.6103979 53.8983004,1.67006456 54.0586998,1.69891921 C54.1542115,1.69262452 54.245419,1.65662477 54.3197067,1.59589932 C54.4275532,1.53337425 54.5506851,1.5025784 54.6750776,1.50701942 L55.1147737,1.50701942 C55.207957,1.49301323 55.3022855,1.52368933 55.369691,1.58991981 C55.4370965,1.65615029 55.4698103,1.75030189 55.4580982,1.84435904 L55.4580982,5.97727434 C55.4580982,6.18600744 55.3710959,6.28970065 55.1970913,6.28835399 L54.6509846,6.28835399 C54.5453124,6.29910955 54.4422044,6.25111172 54.3819468,6.16311413 C54.2799702,5.86848659 54.2027359,5.56577248 54.1510561,5.25815516 C53.778954,3.45227721 53.1766304,2.54933824 52.3440854,2.54933824 C51.9013863,2.54547388 51.489106,2.77549034 51.2578953,3.15533755 C50.9850349,3.56444491 50.8447628,4.04851432 50.8563463,4.54105597 C50.8671274,5.19266832 51.0315916,5.83238538 51.3361973,6.40753385 C51.6574366,7.04450646 52.2965688,7.87876551 53.253594,8.91031101 C54.479657,10.2340828 55.328264,11.3969282 55.7994149,12.398847 C56.2679468,13.4196284 56.5039143,14.5328211 56.4900792,15.6571033 C56.4900792,17.2380882 56.0965611,18.5241534 55.309525,19.5152989 C54.5224889,20.5064445 53.5855412,21.0013439 52.4986818,20.9999973 C51.9119775,20.9762284 51.3353041,20.839067 50.8001294,20.5959977 C50.6629792,20.5235744 50.5140767,20.4763736 50.3604332,20.4566179 C50.2475043,20.4688586 50.140317,20.5129756 50.0512404,20.5838777 C49.986749,20.6357681 49.9099454,20.6698793 49.8283807,20.6828576 L49.2260572,20.6828576 Z M41.2653476,3.7269969 L41.1549216,2.87859786 C41.1174437,2.60926484 41.0987047,2.45507168 41.0987047,2.41601839 C41.1148492,2.3197863 41.1842644,2.24131576 41.2773941,2.21401862 L43.2851392,1.22825974 C43.3541425,1.19144741 43.4374156,1.19442479 43.5036476,1.23607238 C43.5698795,1.27771998 43.6090301,1.35172429 43.6063785,1.43025951 L46.8187707,18.3598603 C46.8463488,18.5908949 46.9143203,18.8152021 47.0195452,19.0224195 C47.1475948,19.1966327 47.3112063,19.341269 47.4993963,19.446619 C47.6555698,19.5225888 47.7596396,19.6765667 47.7724497,19.8506186 L47.7724497,20.4000579 C47.7724497,20.5993644 47.6974939,20.6990176 47.5475822,20.6990176 L43.5963397,20.6990176 C43.5116241,20.7147927 43.4244775,20.6894167 43.3612317,20.6305573 C43.2979858,20.5716978 43.2660599,20.4862595 43.2751005,20.4000579 L43.2751005,19.8506186 C43.2751005,19.6593921 43.4022577,19.497119 43.6565721,19.3637991 C43.9357445,19.2377134 44.1172825,18.9605956 44.122369,18.6527599 C44.1212041,18.5566882 44.1131522,18.4608262 44.098276,18.3659203 L43.602363,15.7581032 L40.5003967,15.7581032 L40.0044836,18.2689604 C39.9849362,18.3463928 39.972834,18.4255369 39.9683442,18.5053001 C39.9683442,18.7544331 40.145695,19.0291528 40.5003967,19.3294592 C40.7279411,19.5287656 40.8417134,19.7031587 40.8417134,19.8526386 L40.8417134,20.4020779 C40.8417134,20.6013844 40.7272719,20.7010376 40.4983889,20.7010376 L38.0188237,20.7010376 C37.7417548,20.7010376 37.6032204,20.6013844 37.6032204,20.4020779 L37.6032204,19.7536587 C37.6056818,19.5746134 37.7060367,19.4115123 37.8642273,19.3294592 C38.2143396,19.0803206 38.4462145,18.6963795 38.504698,18.2689604 L41.2653476,3.7269969 Z M42.0845076,7.73669234 L40.8437211,14.1421051 L43.3032089,14.1421051 L42.0845076,7.73669234 Z M37.1032919,15.925763 C37.0243205,17.4730813 36.6622572,18.6945065 36.0171017,19.5900389 C35.3719463,20.4855712 34.5347165,20.932664 33.5054125,20.9313173 C32.0330661,20.9313173 30.8518427,20.0889783 29.9617423,18.4043002 C29.0716419,16.7196221 28.6265918,14.2552249 28.6265918,11.0111086 C28.6265918,7.80873892 29.0595955,5.34030173 29.9256029,3.60579704 C30.7916103,1.87129234 31.9052396,1.00404 33.2664908,1.00404 C33.929898,1.03667122 34.5728273,1.24578313 35.1296784,1.61003931 C35.1943898,1.65019038 35.2670101,1.67569365 35.3424993,1.68477922 C35.4361644,1.66253812 35.519635,1.60916102 35.5794133,1.53327939 C35.6213167,1.45808428 35.6954421,1.4066256 35.7801878,1.39389955 L36.4567979,1.39389955 C36.6067096,1.39389955 36.6816654,1.51442608 36.6816654,1.75547914 L36.6816654,5.85203448 C36.6816654,6.08500755 36.6067096,6.20149409 36.4567979,6.20149409 L35.9347842,6.20149409 C35.8063358,6.21724735 35.6788771,6.16534211 35.597483,6.06413424 C35.487307,5.82488263 35.405757,5.57331518 35.3545458,5.31471509 C34.8713485,3.39167728 34.234224,2.43015837 33.4431724,2.43015837 C32.976037,2.43015837 32.6159814,2.67996476 32.3630055,3.17957752 C32.1100296,3.67919029 31.9159476,4.62185588 31.7807594,6.00757431 C31.6469097,7.39598606 31.5799849,8.80123113 31.5799849,10.2233095 C31.5799849,13.334106 31.7466278,15.6173767 32.0799135,17.0731217 C32.4131991,18.5288667 32.9954452,19.2567392 33.8266517,19.2567392 C34.8238318,19.2567392 35.4770183,18.0959139 35.786211,15.7742632 L37.1032919,15.925763 Z M24.8640773,12.0312075 L24.8640773,18.3598603 C24.8406085,18.7433232 25.0160784,19.1116896 25.3278665,19.3334992 C25.5049579,19.4379938 25.6169523,19.626044 25.6250127,19.8324386 L25.6250127,20.3939979 C25.6333186,20.4767946 25.6024285,20.5586992 25.5416208,20.6151108 C25.4808131,20.6715224 25.397172,20.6958689 25.31582,20.6808376 L21.6115302,20.6808376 C21.5396634,20.6910856 21.4671902,20.6667358 21.4158649,20.6150973 C21.3645396,20.5634587 21.3403374,20.4905432 21.3505233,20.4182379 L21.3505233,19.8304186 C21.3647494,19.6227366 21.4806278,19.4357454 21.659716,19.3314792 C21.962511,19.1032418 22.1320035,18.7379353 22.1114587,18.3578403 L22.1114587,12.0211075 L19.7362962,3.57953707 C19.5863845,3.0799243 19.3488013,2.75133801 19.0235466,2.59377819 C18.8512964,2.52621017 18.7413199,2.35535708 18.7504933,2.16957867 L18.7504933,1.54539938 C18.734839,1.47746003 18.7514976,1.40606038 18.7955635,1.35222517 C18.8396295,1.29838997 18.9060848,1.26824972 18.9753607,1.27067969 L22.810154,1.27067969 C22.900458,1.25581918 22.9924236,1.28484616 23.0581083,1.34894123 C23.1237931,1.41303631 23.1554422,1.50463234 23.1434397,1.59589932 L23.1434397,2.20189863 C23.1434397,2.35137846 23.0330137,2.467865 22.8121618,2.55135824 C22.4641526,2.68602475 22.290148,2.8772512 22.290148,3.12503758 C22.2920327,3.21856295 22.3082869,3.31123206 22.3383339,3.39975727 L24.0750335,9.45975038 L25.631036,3.90677669 C25.6848102,3.7092911 25.7124876,3.5055379 25.7133535,3.30077738 C25.7133535,2.98431108 25.5360027,2.74258469 25.1813011,2.57559821 C25.0141046,2.53111531 24.8917623,2.38710944 24.874116,2.21401862 L24.874116,1.55751937 C24.8615752,1.48044647 24.8857833,1.40192631 24.9394754,1.34552334 C24.9931675,1.28912036 25.0700942,1.26139939 25.1471694,1.27067969 L28.104578,1.27067969 C28.333461,1.27067969 28.4479024,1.36225292 28.4479024,1.54539938 L28.4479024,2.19381864 C28.4338204,2.39656555 28.2974873,2.56982676 28.104578,2.63013815 C27.6762153,2.83683485 27.3566873,3.21863585 27.2271934,3.67851695 L24.8640773,12.0312075 Z M13.8817113,20.9333373 C12.2273292,20.9333373 10.9945737,20.058005 10.1834447,18.3073403 C9.37231561,16.5566756 8.96675109,14.1400851 8.96675109,11.0575686 C8.96675109,7.97235874 9.3763311,5.52479486 10.1954911,3.71487691 C11.0146512,1.90495897 12.2039055,1 13.7632543,1 C15.2275698,1 16.3887157,1.83358572 17.2466922,3.50075716 C18.1046686,5.16792859 18.5370031,7.63905912 18.5436955,10.9141487 C18.5436955,14.2498383 18.1180536,16.7532888 17.2667696,18.4245002 C16.4154857,20.0957116 15.2871329,20.9319907 13.8817113,20.9333373 Z M14.7309875,18.8628397 C15.0281337,18.3807336 15.2396162,17.0583084 15.3654349,14.8955642 C15.4912536,12.73282 15.5548322,10.7491822 15.5561707,8.94465097 C15.5774843,7.59758707 15.4820902,6.25121649 15.2710709,4.92081554 C15.0810044,3.86907007 14.8755451,3.19102418 14.6546931,2.88667785 C14.463917,2.59986762 14.1423965,2.42901412 13.7993937,2.43217837 C13.4999293,2.43512061 13.2147504,2.56142349 13.0103499,2.78163797 C12.7774514,3.01461104 12.5954159,3.43275057 12.4642432,4.03605655 C12.3330705,4.63936253 12.2179598,5.81971452 12.118911,7.57711252 C12.0198622,9.3277772 11.9703379,11.1457751 11.9703379,13.0311063 C11.9703379,15.385077 12.1169033,17.0684084 12.4100341,18.0811006 C12.7031648,19.0937928 13.1502228,19.5947522 13.7512078,19.5839789 C14.107248,19.5859989 14.4338412,19.3449458 14.7309875,18.8628397 Z M4.46940192,17.2630015 L4.46940192,3.57953707 C4.49096054,3.19980583 4.31545109,2.83594296 4.00561278,2.61801816 C3.82636395,2.5098513 3.71433282,2.3171699 3.7084665,2.10695874 L3.7084665,1.55751937 C3.69850415,1.47657316 3.72708912,1.39564324 3.78558754,1.33917385 C3.84408596,1.28270447 3.92563847,1.25731706 4.00561278,1.27067969 L7.72194909,1.27067969 C7.79247119,1.26200375 7.86292047,1.28736946 7.91195814,1.33909366 C7.96099581,1.39081786 7.98285308,1.46281572 7.97090949,1.53327939 L7.97090949,2.10695874 C7.96112657,2.31602217 7.85009818,2.50697897 7.6737632,2.61801816 C7.3666217,2.83824684 7.19188303,3.20051175 7.20997407,3.57953707 L7.20997407,15.7520432 C7.20997407,17.3168681 6.83987971,18.5611867 6.09969099,19.484999 C5.35950227,20.4088113 4.44330123,20.8707174 3.35108786,20.8707174 C2.52791234,20.8707174 1.87472591,20.6458243 1.39152858,20.1960382 C0.932147368,19.7987287 0.667539002,19.2198224 0.666732571,18.61034 C0.66312903,18.233602 0.807428812,17.870651 1.0682816,17.6003411 C1.33292361,17.3202463 1.70436793,17.1679664 2.08821615,17.1822016 C2.39495768,17.1709004 2.69441798,17.2778323 2.92544588,17.4811613 C3.14111175,17.678935 3.26056905,17.961336 3.25270835,18.2548204 C3.24703631,18.4358268 3.22349692,18.615818 3.18243727,18.7921398 C3.16119403,18.8863512 3.14909081,18.9824149 3.14629785,19.0789794 C3.12880377,19.2153076 3.17618667,19.3519589 3.27416863,19.4477563 C3.3721506,19.5435538 3.50927373,19.5872948 3.64421865,19.5657989 C4.19434083,19.5617589 4.46940192,18.7941598 4.46940192,17.2630015 Z" id="text" fill="#000000" opacity="0.800000012"></path>
            <path d="M77.8685497,19.9333373 C76.2141677,19.9333373 74.9814122,19.058005 74.1702831,17.3073403 C73.3591541,15.5566756 72.9535896,13.1421051 72.9535896,10.0636286 C72.9535896,6.97841873 73.3631696,4.53085485 74.1823296,2.72093691 C75.0014896,0.911018964 76.190744,0.00605999311 77.7500928,0.00605999311 C79.2144082,0.00605999311 80.3755542,0.839645712 81.2335306,2.50681715 C82.0915071,4.17398859 82.5211645,6.64242578 82.522503,9.91212873 C82.522503,13.2478183 82.096861,15.7512688 81.2455771,17.4224802 C80.3942931,19.0936916 79.2686174,19.930644 77.8685497,19.9333373 Z M78.7178259,17.8628397 C79.0149722,17.3807336 79.2264547,16.0583084 79.3522734,13.8955642 C79.4794306,11.73282 79.5430092,9.74918225 79.5430092,7.94465097 C79.5643227,6.59758707 79.4689287,5.25121649 79.2579094,3.92081554 C79.0705198,2.86368341 78.8650606,2.18563751 78.6415316,1.88667785 C78.4507554,1.59986762 78.1292349,1.42901412 77.7862322,1.43217837 C77.4867678,1.43512061 77.2015889,1.56142349 76.9971883,1.78163797 C76.7642899,2.01461104 76.5822543,2.43275057 76.4510816,3.03605655 C76.319909,3.63936253 76.2047982,4.81971452 76.1057495,6.57711252 C76.0120547,8.3277772 75.9652073,10.1457751 75.9652073,12.0311063 C75.9652073,14.385077 76.1117727,16.0684084 76.4049035,17.0811006 C76.6980343,18.0937928 77.1424152,18.5947522 77.7380463,18.5839789 C78.0940864,18.5859989 78.4206796,18.3449458 78.7178259,17.8628397 Z M69.357718,10.7787077 L69.357718,2.58357706 C69.3803744,2.20589339 69.2100733,1.84265178 68.9059753,1.62003816 C68.7200824,1.51595034 68.6025534,1.32092089 68.5967825,1.10695874 L68.5967825,0.557519366 C68.5884767,0.474722705 68.6193667,0.392818158 68.6801745,0.336406531 C68.7409822,0.279994903 68.8246233,0.255648388 68.9059753,0.270679692 L71.5883228,0.270679692 C71.6601896,0.260431683 71.7326628,0.284781511 71.7839881,0.336420055 C71.8353134,0.388058598 71.8595156,0.460974092 71.8493297,0.533279394 L71.8493297,1.10695874 C71.8386625,1.31679804 71.7260386,1.50791632 71.5481679,1.61801816 C71.2410264,1.83824684 71.0662878,2.20051175 71.0843788,2.57953707 L71.0843788,19.371778 C71.0843788,19.641111 70.9692681,19.7757775 70.7390466,19.7757775 L70.2230561,19.7757775 C69.9828482,19.7757794 69.7749371,19.6077634 69.7231276,19.371778 L64.7981287,5.76911344 L64.7981287,17.3679403 C64.7736317,17.7497243 64.9457442,18.1174092 65.2538868,18.3415791 C65.4332936,18.4445868 65.5477213,18.6329055 65.5570564,18.8405186 L65.5570564,19.4020779 C65.5652041,19.4844555 65.5345646,19.5659223 65.4742546,19.6222378 C65.4139447,19.6785534 65.3309151,19.7032272 65.2498714,19.6889176 L62.5996477,19.6889176 C62.5279113,19.6993448 62.4555055,19.67497 62.4044518,19.6232066 C62.3533981,19.5714432 62.329731,19.4984094 62.3406486,19.4263179 L62.3406486,18.8384986 C62.3548747,18.6308166 62.4707532,18.4438254 62.6498414,18.3395591 C62.9526363,18.1113218 63.1221288,17.7460153 63.101584,17.3659203 L63.101584,2.57953707 C63.1239203,2.20247829 62.9536144,1.83998794 62.6498414,1.61801816 C62.4645521,1.51429564 62.3471187,1.32019199 62.3406486,1.10695874 L62.3406486,0.557519366 C62.3325009,0.475141828 62.3631404,0.393674994 62.4234503,0.337359469 C62.4837603,0.281043944 62.5667899,0.256370103 62.6478336,0.270679692 L65.1555073,0.270679692 C65.2819597,0.258415894 65.4092893,0.282217136 65.5229247,0.339359614 C65.613809,0.431079463 65.6789263,0.545381592 65.7116527,0.670639237 L69.357718,10.7787077 Z M61.2624895,18.3355192 C61.4442152,18.4370184 61.5610865,18.6256118 61.5716822,18.8344586 L61.5716822,19.3960179 C61.579988,19.4788146 61.549098,19.5607192 61.4882903,19.6171308 C61.4274826,19.6735424 61.3438415,19.6978889 61.2624895,19.6828576 L57.5581996,19.6828576 C57.4863329,19.6931056 57.4138597,19.6687558 57.3625344,19.6171173 C57.311209,19.5654787 57.2870069,19.4925632 57.2971927,19.4202579 L57.2971927,18.8324386 C57.3114189,18.6247566 57.4272973,18.4377654 57.6063855,18.3334992 C57.9091804,18.1052618 58.078673,17.7399553 58.0581282,17.3598603 L58.0581282,2.57953707 C58.0804644,2.20247829 57.9101585,1.83998794 57.6063855,1.61801816 C57.4195473,1.51532853 57.3004703,1.32103166 57.2931773,1.10695874 L57.2931773,0.557519366 C57.2848714,0.474722705 57.3157614,0.392818158 57.3765692,0.336406531 C57.4373769,0.279994903 57.521018,0.255648388 57.60237,0.270679692 L61.3086676,0.270679692 C61.3805343,0.260431683 61.4530075,0.284781511 61.5043329,0.336420055 C61.5556582,0.388058598 61.5798603,0.460974092 61.5696745,0.533279394 L61.5696745,1.10695874 C61.5579567,1.31858809 61.4419446,1.51034247 61.2604817,1.61801816 C60.9596301,1.84241208 60.7901189,2.20321077 60.808739,2.57953707 L60.808739,17.3618803 C60.7864874,17.7426894 60.9567651,18.1096881 61.2624895,18.3355192 Z M49.2260572,19.6828576 C49.1383441,19.6896281 49.0525391,19.6546926 48.9941924,19.5884536 C48.9358457,19.5222146 48.9116873,19.4323128 48.9289109,19.345518 L48.9289109,14.6389234 C48.9289109,14.322457 49.0359906,14.1642239 49.2501501,14.1642239 L49.7601174,14.1642239 C49.870291,14.1505441 49.9771393,14.2079315 50.0271475,14.3076437 C50.1167362,14.6323412 50.1785326,14.964159 50.2118601,15.2994626 C50.5357763,17.4797135 51.275965,18.5698389 52.4324262,18.5698389 C53.0197747,18.576923 53.5641228,18.2608701 53.851902,17.7456798 C54.2103058,17.1431258 54.3893853,16.4497779 54.3678925,15.7479021 C54.3734414,14.9644845 54.1836067,14.1921778 53.8157626,13.5016646 C53.447676,12.8108254 52.7376035,11.8789332 51.685545,10.7059878 C51.0655445,10.0441592 50.4849632,9.3460429 49.9468377,8.6152902 C49.591566,8.09852778 49.3116576,7.53325389 49.1156312,6.93667211 C48.8992949,6.27183245 48.7928094,5.57579399 48.8004152,4.87627446 C48.8004152,3.49459603 49.1310239,2.35868398 49.7922413,1.46853833 C50.4534587,0.578392676 51.2565568,0.133319848 52.2015355,0.133319848 C52.6943517,0.147688403 53.176455,0.281422344 53.6069571,0.523179405 C53.744926,0.610397899 53.8983004,0.670064564 54.0586998,0.698919205 C54.1542115,0.692624516 54.245419,0.656624767 54.3197067,0.595899322 C54.4275532,0.533374254 54.5506851,0.5025784 54.6750776,0.507019423 L55.1147737,0.507019423 C55.207957,0.493013228 55.3022855,0.523689331 55.369691,0.589919812 C55.4370965,0.656150294 55.4698103,0.750301892 55.4580982,0.84435904 L55.4580982,4.97727434 C55.4580982,5.18600744 55.3710959,5.28970065 55.1970913,5.28835399 L54.6509846,5.28835399 C54.5453124,5.29910955 54.4422044,5.25111172 54.3819468,5.16311413 C54.2799702,4.86848659 54.2027359,4.56577248 54.1510561,4.25815516 C53.778954,2.45227721 53.1766304,1.54933824 52.3440854,1.54933824 C51.9013863,1.54547388 51.489106,1.77549034 51.2578953,2.15533755 C50.9850349,2.56444491 50.8447628,3.04851432 50.8563463,3.54105597 C50.8671274,4.19266832 51.0315916,4.83238538 51.3361973,5.40753385 C51.6574366,6.04450646 52.2965688,6.87876551 53.253594,7.91031101 C54.479657,9.23408283 55.328264,10.3969282 55.7994149,11.398847 C56.2679468,12.4196284 56.5039143,13.5328211 56.4900792,14.6571033 C56.4900792,16.2380882 56.0965611,17.5241534 55.309525,18.5152989 C54.5224889,19.5064445 53.5855412,20.0013439 52.4986818,19.9999973 C51.9119775,19.9762284 51.3353041,19.839067 50.8001294,19.5959977 C50.6629792,19.5235744 50.5140767,19.4763736 50.3604332,19.4566179 C50.2475043,19.4688586 50.140317,19.5129756 50.0512404,19.5838777 C49.986749,19.6357681 49.9099454,19.6698793 49.8283807,19.6828576 L49.2260572,19.6828576 Z M41.2653476,2.7269969 L41.1549216,1.87859786 C41.1174437,1.60926484 41.0987047,1.45507168 41.0987047,1.41601839 C41.1148492,1.3197863 41.1842644,1.24131576 41.2773941,1.21401862 L43.2851392,0.22825974 C43.3541425,0.19144741 43.4374156,0.194424793 43.5036476,0.236072384 C43.5698795,0.277719975 43.6090301,0.351724291 43.6063785,0.430259511 L46.8187707,17.3598603 C46.8463488,17.5908949 46.9143203,17.8152021 47.0195452,18.0224195 C47.1475948,18.1966327 47.3112063,18.341269 47.4993963,18.446619 C47.6555698,18.5225888 47.7596396,18.6765667 47.7724497,18.8506186 L47.7724497,19.4000579 C47.7724497,19.5993644 47.6974939,19.6990176 47.5475822,19.6990176 L43.5963397,19.6990176 C43.5116241,19.7147927 43.4244775,19.6894167 43.3612317,19.6305573 C43.2979858,19.5716978 43.2660599,19.4862595 43.2751005,19.4000579 L43.2751005,18.8506186 C43.2751005,18.6593921 43.4022577,18.497119 43.6565721,18.3637991 C43.9357445,18.2377134 44.1172825,17.9605956 44.122369,17.6527599 C44.1212041,17.5566882 44.1131522,17.4608262 44.098276,17.3659203 L43.602363,14.7581032 L40.5003967,14.7581032 L40.0044836,17.2689604 C39.9849362,17.3463928 39.972834,17.4255369 39.9683442,17.5053001 C39.9683442,17.7544331 40.145695,18.0291528 40.5003967,18.3294592 C40.7279411,18.5287656 40.8417134,18.7031587 40.8417134,18.8526386 L40.8417134,19.4020779 C40.8417134,19.6013844 40.7272719,19.7010376 40.4983889,19.7010376 L38.0188237,19.7010376 C37.7417548,19.7010376 37.6032204,19.6013844 37.6032204,19.4020779 L37.6032204,18.7536587 C37.6056818,18.5746134 37.7060367,18.4115123 37.8642273,18.3294592 C38.2143396,18.0803206 38.4462145,17.6963795 38.504698,17.2689604 L41.2653476,2.7269969 Z M42.0845076,6.73669234 L40.8437211,13.1421051 L43.3032089,13.1421051 L42.0845076,6.73669234 Z M37.1032919,14.925763 C37.0243205,16.4730813 36.6622572,17.6945065 36.0171017,18.5900389 C35.3719463,19.4855712 34.5347165,19.932664 33.5054125,19.9313173 C32.0330661,19.9313173 30.8518427,19.0889783 29.9617423,17.4043002 C29.0716419,15.7196221 28.6265918,13.2552249 28.6265918,10.0111086 C28.6265918,6.80873892 29.0595955,4.34030173 29.9256029,2.60579704 C30.7916103,0.871292343 31.9052396,0.00403999541 33.2664908,0.00403999541 C33.929898,0.0366712213 34.5728273,0.245783128 35.1296784,0.610039306 C35.1943898,0.650190381 35.2670101,0.675693652 35.3424993,0.684779221 C35.4361644,0.662538118 35.519635,0.609161018 35.5794133,0.533279394 C35.6213167,0.458084278 35.6954421,0.406625602 35.7801878,0.393899552 L36.4567979,0.393899552 C36.6067096,0.393899552 36.6816654,0.514426082 36.6816654,0.755479141 L36.6816654,4.85203448 C36.6816654,5.08500755 36.6067096,5.20149409 36.4567979,5.20149409 L35.9347842,5.20149409 C35.8063358,5.21724735 35.6788771,5.16534211 35.597483,5.06413424 C35.487307,4.82488263 35.405757,4.57331518 35.3545458,4.31471509 C34.8713485,2.39167728 34.234224,1.43015837 33.4431724,1.43015837 C32.976037,1.43015837 32.6159814,1.67996476 32.3630055,2.17957752 C32.1100296,2.67919029 31.9159476,3.62185588 31.7807594,5.00757431 C31.6469097,6.39598606 31.5799849,7.80123113 31.5799849,9.22330951 C31.5799849,12.334106 31.7466278,14.6173767 32.0799135,16.0731217 C32.4131991,17.5288667 32.9954452,18.2567392 33.8266517,18.2567392 C34.8238318,18.2567392 35.4770183,17.0959139 35.786211,14.7742632 L37.1032919,14.925763 Z M24.8640773,11.0312075 L24.8640773,17.3598603 C24.8406085,17.7433232 25.0160784,18.1116896 25.3278665,18.3334992 C25.5049579,18.4379938 25.6169523,18.626044 25.6250127,18.8324386 L25.6250127,19.3939979 C25.6333186,19.4767946 25.6024285,19.5586992 25.5416208,19.6151108 C25.4808131,19.6715224 25.397172,19.6958689 25.31582,19.6808376 L21.6115302,19.6808376 C21.5396634,19.6910856 21.4671902,19.6667358 21.4158649,19.6150973 C21.3645396,19.5634587 21.3403374,19.4905432 21.3505233,19.4182379 L21.3505233,18.8304186 C21.3647494,18.6227366 21.4806278,18.4357454 21.659716,18.3314792 C21.962511,18.1032418 22.1320035,17.7379353 22.1114587,17.3578403 L22.1114587,11.0211075 L19.7362962,2.57953707 C19.5863845,2.0799243 19.3488013,1.75133801 19.0235466,1.59377819 C18.8512964,1.52621017 18.7413199,1.35535708 18.7504933,1.16957867 L18.7504933,0.54539938 C18.734839,0.47746003 18.7514976,0.406060382 18.7955635,0.352225174 C18.8396295,0.298389966 18.9060848,0.268249716 18.9753607,0.270679692 L22.810154,0.270679692 C22.900458,0.255819182 22.9924236,0.28484616 23.0581083,0.348941233 C23.1237931,0.413036306 23.1554422,0.504632345 23.1434397,0.595899322 L23.1434397,1.20189863 C23.1434397,1.35137846 23.0330137,1.467865 22.8121618,1.55135824 C22.4641526,1.68602475 22.290148,1.8772512 22.290148,2.12503758 C22.2920327,2.21856295 22.3082869,2.31123206 22.3383339,2.39975727 L24.0750335,8.45975038 L25.631036,2.90677669 C25.6848102,2.7092911 25.7124876,2.5055379 25.7133535,2.30077738 C25.7133535,1.98431108 25.5360027,1.74258469 25.1813011,1.57559821 C25.0141046,1.53111531 24.8917623,1.38710944 24.874116,1.21401862 L24.874116,0.557519366 C24.8615752,0.480446474 24.8857833,0.401926311 24.9394754,0.345523336 C24.9931675,0.289120361 25.0700942,0.261399393 25.1471694,0.270679692 L28.104578,0.270679692 C28.333461,0.270679692 28.4479024,0.362252921 28.4479024,0.54539938 L28.4479024,1.19381864 C28.4338204,1.39656555 28.2974873,1.56982676 28.104578,1.63013815 C27.6762153,1.83683485 27.3566873,2.21863585 27.2271934,2.67851695 L24.8640773,11.0312075 Z M13.8817113,19.9333373 C12.2273292,19.9333373 10.9945737,19.058005 10.1834447,17.3073403 C9.37231561,15.5566756 8.96675109,13.1400851 8.96675109,10.0575686 C8.96675109,6.97235874 9.3763311,4.52479486 10.1954911,2.71487691 C11.0146512,0.904958971 12.2039055,-2.84298757e-15 13.7632543,0 C15.2275698,0 16.3887157,0.833585719 17.2466922,2.50075716 C18.1046686,4.16792859 18.5370031,6.63905912 18.5436955,9.91414873 C18.5436955,13.2498383 18.1180536,15.7532888 17.2667696,17.4245002 C16.4154857,19.0957116 15.2871329,19.9319907 13.8817113,19.9333373 Z M14.7309875,17.8628397 C15.0281337,17.3807336 15.2396162,16.0583084 15.3654349,13.8955642 C15.4912536,11.73282 15.5548322,9.74918225 15.5561707,7.94465097 C15.5774843,6.59758707 15.4820902,5.25121649 15.2710709,3.92081554 C15.0810044,2.86907007 14.8755451,2.19102418 14.6546931,1.88667785 C14.463917,1.59986762 14.1423965,1.42901412 13.7993937,1.43217837 C13.4999293,1.43512061 13.2147504,1.56142349 13.0103499,1.78163797 C12.7774514,2.01461104 12.5954159,2.43275057 12.4642432,3.03605655 C12.3330705,3.63936253 12.2179598,4.81971452 12.118911,6.57711252 C12.0198622,8.3277772 11.9703379,10.1457751 11.9703379,12.0311063 C11.9703379,14.385077 12.1169033,16.0684084 12.4100341,17.0811006 C12.7031648,18.0937928 13.1502228,18.5947522 13.7512078,18.5839789 C14.107248,18.5859989 14.4338412,18.3449458 14.7309875,17.8628397 Z M4.46940192,16.2630015 L4.46940192,2.57953707 C4.49096054,2.19980583 4.31545109,1.83594296 4.00561278,1.61801816 C3.82636395,1.5098513 3.71433282,1.3171699 3.7084665,1.10695874 L3.7084665,0.557519366 C3.69850415,0.476573158 3.72708912,0.395643243 3.78558754,0.339173854 C3.84408596,0.282704466 3.92563847,0.257317058 4.00561278,0.270679692 L7.72194909,0.270679692 C7.79247119,0.262003751 7.86292047,0.287369462 7.91195814,0.339093662 C7.96099581,0.390817861 7.98285308,0.462815718 7.97090949,0.533279394 L7.97090949,1.10695874 C7.96112657,1.31602217 7.85009818,1.50697897 7.6737632,1.61801816 C7.3666217,1.83824684 7.19188303,2.20051175 7.20997407,2.57953707 L7.20997407,14.7520432 C7.20997407,16.3168681 6.83987971,17.5611867 6.09969099,18.484999 C5.35950227,19.4088113 4.44330123,19.8707174 3.35108786,19.8707174 C2.52791234,19.8707174 1.87472591,19.6458243 1.39152858,19.1960382 C0.932147368,18.7987287 0.667539002,18.2198224 0.666732571,17.61034 C0.66312903,17.233602 0.807428812,16.870651 1.0682816,16.6003411 C1.33292361,16.3202463 1.70436793,16.1679664 2.08821615,16.1822016 C2.39495768,16.1709004 2.69441798,16.2778323 2.92544588,16.4811613 C3.14111175,16.678935 3.26056905,16.961336 3.25270835,17.2548204 C3.24703631,17.4358268 3.22349692,17.615818 3.18243727,17.7921398 C3.16119403,17.8863512 3.14909081,17.9824149 3.14629785,18.0789794 C3.12880377,18.2153076 3.17618667,18.3519589 3.27416863,18.4477563 C3.3721506,18.5435538 3.50927373,18.5872948 3.64421865,18.5657989 C4.19434083,18.5617589 4.46940192,17.7941598 4.46940192,16.2630015 Z" id="text" fill="url(#linearGradient-9)"></path>
        </g>
        <g id="screws" transform="translate(13.000000, 29.000000)">
            <g id="screw_right" transform="translate(116.000000, 0.000000)">
                <circle id="Oval" fill-opacity="0.8" fill="#000000" cx="3" cy="3" r="3"></circle>
                <circle id="Oval" fill="url(#radialGradient-10)" cx="3" cy="3" r="2"></circle>
                <polygon id="Path" fill="url(#linearGradient-11)" points="3.48 3 4.2 3.72 3.72 4.2 3 3.48 2.28 4.2 1.8 3.72 2.52 3 1.8 2.28 2.28 1.8 3 2.52 3.72 1.8 4.2 2.28"></polygon>
            </g>
            <g id="screw_left">
                <circle id="Oval" fill-opacity="0.8" fill="#000000" cx="3" cy="3" r="3"></circle>
                <circle id="Oval" fill="url(#radialGradient-10)" cx="3" cy="3" r="2"></circle>
                <polygon id="Path" fill="url(#linearGradient-11)" points="3.48 3 4.2 3.72 3.72 4.2 3 3.48 2.28 4.2 1.8 3.72 2.52 3 1.8 2.28 2.28 1.8 3 2.52 3.72 1.8 4.2 2.28"></polygon>
            </g>
        </g>
    </g>
</svg>